<svg width="48" height="48" viewBox="0 0 48 48" fill="none" xmlns="http://www.w3.org/2000/svg">
<g clip-path="url(#clip0_8_90)">
<path d="M39.4995 0.601508H8.49904C7.38235 0.600126 6.27636 0.819055 5.24441 1.24576C4.21245 1.67246 3.27482 2.29855 2.4852 3.08816C1.69558 3.87778 1.06949 4.81542 0.642789 5.84737C0.216089 6.87932 -0.00284026 7.98532 -0.00145834 9.10201V38.898C-0.00284026 40.0147 0.216089 41.1207 0.642789 42.1526C1.06949 43.1846 1.69558 44.1222 2.4852 44.9118C3.27482 45.7015 4.21245 46.3276 5.24441 46.7543C6.27636 47.181 7.38235 47.3999 8.49904 47.3985H39.4995C40.6162 47.3999 41.7222 47.181 42.7542 46.7543C43.7861 46.3276 44.7238 45.7015 45.5134 44.9118C46.303 44.1222 46.9291 43.1846 47.3558 42.1526C47.7825 41.1207 48.0014 40.0147 48 38.898V9.10201C48.0014 7.98532 47.7825 6.87932 47.3558 5.84737C46.9291 4.81542 46.303 3.87778 45.5134 3.08816C44.7238 2.29855 43.7861 1.67246 42.7542 1.24576C41.7222 0.819055 40.6162 0.600126 39.4995 0.601508ZM45.9765 38.118C45.9821 39.0717 45.7991 40.0171 45.438 40.8999C45.077 41.7826 44.545 42.5853 43.8727 43.2618C43.2004 43.9383 42.401 44.4752 41.5205 44.8417C40.64 45.2082 39.6958 45.3971 38.742 45.3975H9.25804C7.33382 45.3947 5.48921 44.6291 4.12857 43.2685C2.76794 41.9078 2.00232 40.0632 1.99954 38.139V9.85951C2.00232 7.93529 2.76794 6.09067 4.12857 4.73004C5.48921 3.36941 7.33382 2.60379 9.25804 2.60101H38.718C40.643 2.60141 42.489 3.36627 43.8501 4.72741C45.2113 6.08856 45.9761 7.93456 45.9765 9.85951V38.118ZM18.9765 22.5L24.579 33.258C24.681 33.4215 24.6195 33.5775 24.4605 33.5775H20.976C20.7585 33.5775 20.6565 33.5235 20.562 33.3195C19.2825 30.6795 17.976 28.0395 16.6395 25.203H16.602C15.3722 27.9344 14.1036 30.6482 12.7965 33.3435C12.705 33.4995 12.603 33.561 12.438 33.561H9.13954C8.93704 33.561 8.92204 33.3975 9.02404 33.2805L14.5005 22.842L9.20404 12.2805C9.07804 12.117 9.20404 11.9985 9.31954 11.9985H12.7575C12.96 11.9985 13.0395 12.039 13.1175 12.216C14.394 14.8769 15.6415 17.5516 16.86 20.2395H16.8975C18.0615 17.5995 19.344 14.8575 20.577 12.24C20.679 12.0765 20.7405 11.9745 20.937 11.9745H24.1545C24.318 11.9745 24.381 12.1005 24.2805 12.2565L18.9765 22.5ZM25.5615 25.758C25.5615 21.102 28.656 17.46 33.5775 17.46C33.999 17.46 34.218 17.46 34.617 17.5005V12.204C34.617 12.078 34.7175 12 34.8195 12H37.9755C38.139 12 38.1795 12.0615 38.1795 12.156V30.5235C38.1795 31.062 38.1795 31.7415 38.2815 32.475C38.2815 32.601 38.241 32.6385 38.118 32.703C36.5188 33.4629 34.7707 33.8579 33 33.8595C28.656 33.882 25.5615 31.203 25.5615 25.758ZM34.6185 20.64C34.2491 20.4988 33.856 20.4301 33.4605 20.4375C30.939 20.4375 29.181 22.3815 29.181 25.602C29.181 29.2815 30.9765 30.7575 33.243 30.7575C33.7185 30.7575 34.2435 30.7035 34.6185 30.54V20.64Z" fill="#6DECB9"/>
</g>
<defs>
<clipPath id="clip0_8_90">
<rect width="48" height="48" fill="white"/>
</clipPath>
</defs>
</svg>
