<svg width="28" height="28" viewBox="0 0 28 28" fill="none" xmlns="http://www.w3.org/2000/svg">
<path d="M6.45871 25.5337C6.64743 25.6318 6.85933 25.6768 7.07165 25.6636C7.28398 25.6504 7.48871 25.5797 7.66387 25.459L22.8305 14.959C22.9855 14.8516 23.1122 14.7083 23.1996 14.5413C23.2871 14.3743 23.3328 14.1885 23.3328 14C23.3328 13.8115 23.2871 13.6257 23.1996 13.4587C23.1122 13.2917 22.9855 13.1484 22.8305 13.041L7.66387 2.54101C7.48884 2.4199 7.28402 2.34899 7.07157 2.33594C6.85913 2.32289 6.64716 2.3682 6.45863 2.46698C6.27009 2.56575 6.11216 2.71422 6.00195 2.89631C5.89174 3.0784 5.83345 3.28717 5.83337 3.50001V24.5C5.83334 24.713 5.89159 24.9219 6.00183 25.1041C6.11206 25.2863 6.27006 25.4349 6.45871 25.5337Z" fill="#6DECB9"/>
</svg>
