<svg width="48" height="48" viewBox="0 0 48 48" fill="none" xmlns="http://www.w3.org/2000/svg">
<path fill-rule="evenodd" clip-rule="evenodd" d="M9.97 4C7.23 4 5.204 6.398 5.296 8.996C5.382 11.496 5.27 14.73 4.456 17.368C3.636 20.012 2.256 21.688 0 21.904V24.334C2.256 24.548 3.638 26.224 4.454 28.87C5.27 31.508 5.382 34.742 5.294 37.24C5.204 39.84 7.23 42.238 9.97 42.238H38.034C40.774 42.238 42.8 39.84 42.708 37.24C42.622 34.742 42.734 31.508 43.548 28.87C44.366 26.224 45.744 24.55 48 24.334V21.904C45.744 21.688 44.366 20.012 43.548 17.368C42.734 14.728 42.622 11.494 42.708 8.996C42.8 6.396 40.772 4 38.034 4H9.97ZM32.54 27.538C32.54 31.118 29.87 33.288 25.44 33.288H17.898C17.6821 33.288 17.4751 33.2022 17.3224 33.0496C17.1698 32.8969 17.084 32.6899 17.084 32.474V13.762C17.0845 13.5465 17.1705 13.3399 17.3231 13.1877C17.4757 13.0355 17.6825 12.95 17.898 12.95H25.398C29.092 12.95 31.518 14.95 31.518 18.024C31.518 20.18 29.886 22.11 27.808 22.45V22.562C30.638 22.872 32.542 24.832 32.542 27.538H32.54ZM24.62 15.528H20.32V21.604H23.942C26.742 21.604 28.286 20.476 28.286 18.46C28.286 16.572 26.958 15.528 24.62 15.528ZM20.32 24.014V30.708H24.78C27.694 30.708 29.24 29.538 29.24 27.34C29.24 25.14 27.652 24.014 24.592 24.014H20.32Z" fill="#6DECB9"/>
</svg>
