<svg width="48" height="48" viewBox="0 0 48 48" fill="none" xmlns="http://www.w3.org/2000/svg">
<path d="M14.712 6.70321C16.3488 5.46364 18.3469 4.79508 20.4 4.80001C21.1091 4.78411 21.8108 4.94732 22.44 5.27453C23.0693 5.60175 23.6058 6.0824 24 6.67201C24.3943 6.0824 24.9308 5.60175 25.5601 5.27453C26.1893 4.94732 26.891 4.78411 27.6 4.80001C29.6532 4.79508 31.6513 5.46364 33.288 6.70321C34.548 7.68241 35.5201 9.03841 35.8632 10.6776C36.6504 10.7376 37.3704 11.064 37.9753 11.556C38.8921 12.3 39.5593 13.416 39.9793 14.5968C40.6369 16.4328 40.8144 18.7728 40.1329 20.7648C40.3056 20.8464 40.4761 20.9424 40.6417 21.0528C41.3017 21.492 41.8033 22.1208 42.1729 22.8624C42.9001 24.3144 43.2001 26.34 43.2001 28.8C43.2001 31.5384 42.1561 33.3768 40.8313 34.512C40.0987 35.1402 39.2341 35.5954 38.3017 35.844C38.0616 37.1832 37.3897 38.7336 36.3361 40.0488C34.9681 41.7648 32.8465 43.2 30 43.2C27.744 43.2 25.9489 41.952 24.7824 40.728C24.5036 40.4358 24.2423 40.1272 24 39.804C23.7578 40.1272 23.4965 40.4358 23.2176 40.728C22.0512 41.952 20.2584 43.2 18 43.2C15.1536 43.2 13.0344 41.7648 11.664 40.0488C10.6795 38.8262 10.0051 37.3836 9.69845 35.844C8.766 35.5954 7.90145 35.1402 7.16885 34.512C5.84405 33.3768 4.80005 31.536 4.80005 28.8C4.80005 26.34 5.10245 24.312 5.82725 22.8624C6.17076 22.1351 6.69865 21.5104 7.35845 21.0504C7.52054 20.9431 7.69064 20.8484 7.86725 20.7672C7.18565 18.7704 7.36325 16.4328 8.02085 14.5968C8.44085 13.416 9.10805 12.3 10.0248 11.556C10.6296 11.064 11.3496 10.74 12.1368 10.6776C12.4824 9.03841 13.4544 7.68241 14.7144 6.70321H14.712ZM22.8 10.8V10.776L22.7952 10.656C22.7599 10.0303 22.6355 9.41291 22.4256 8.82241C22.2763 8.37664 22.0219 7.9733 21.684 7.64641C21.3296 7.33772 20.8696 7.1778 20.4 7.20001C18.8807 7.1948 17.4011 7.68519 16.1856 8.59681C15.072 9.46321 14.4 10.6368 14.4 12C14.3999 12.1901 14.3546 12.3773 14.2679 12.5465C14.1813 12.7156 14.0556 12.8617 13.9014 12.9728C13.7473 13.0839 13.5689 13.1567 13.381 13.1854C13.1931 13.214 13.0012 13.1977 12.8208 13.1376C12.3696 12.9888 11.9664 13.0728 11.5368 13.4184C11.0664 13.8024 10.608 14.484 10.2792 15.4032C9.60965 17.28 9.67925 19.5528 10.5984 20.9352C10.7297 21.1321 10.7999 21.3634 10.8 21.6H12.6C14.0322 21.6 15.4057 22.1689 16.4184 23.1816C17.4311 24.1943 18 25.5678 18 27V27.804C18.8007 28.0871 19.4755 28.6441 19.9052 29.3766C20.3349 30.1091 20.4918 30.9699 20.3482 31.8069C20.2046 32.6439 19.7697 33.4032 19.1204 33.9505C18.4712 34.4979 17.6493 34.7981 16.8 34.7981C15.9508 34.7981 15.1289 34.4979 14.4797 33.9505C13.8304 33.4032 13.3955 32.6439 13.2519 31.8069C13.1083 30.9699 13.2652 30.1091 13.6949 29.3766C14.1246 28.6441 14.7994 28.0871 15.6 27.804V27C15.6 25.344 14.256 24 12.6 24H8.40005C8.25658 23.9998 8.11432 23.9738 7.98005 23.9232L7.97285 23.9376C7.49765 24.8856 7.20005 26.46 7.20005 28.8C7.20005 30.8616 7.95605 32.0232 8.73125 32.688C9.56405 33.4032 10.488 33.6 10.8 33.6C11.1183 33.6 11.4235 33.7264 11.6486 33.9515C11.8736 34.1765 12 34.4818 12 34.8C12 35.6832 12.48 37.2264 13.536 38.5512C14.5656 39.8352 16.0464 40.8 18 40.8C19.344 40.8 20.5488 40.0488 21.48 39.072C21.9384 38.592 22.296 38.0952 22.5289 37.6872C22.6348 37.5063 22.7255 37.3168 22.8 37.1208V18H20.196C19.913 18.8007 19.356 19.4755 18.6235 19.9052C17.891 20.3349 17.0302 20.4918 16.1932 20.3482C15.3562 20.2046 14.5969 19.7697 14.0495 19.1204C13.5022 18.4711 13.2019 17.6492 13.2019 16.8C13.2019 15.9508 13.5022 15.1289 14.0495 14.4796C14.5969 13.8303 15.3562 13.3955 16.1932 13.2519C17.0302 13.1082 17.891 13.2652 18.6235 13.6949C19.356 14.1245 19.913 14.7994 20.196 15.6H22.8V10.8ZM25.2001 34.7976V37.1184C25.2746 37.3144 25.3653 37.5039 25.4712 37.6848C25.7064 38.0928 26.0616 38.5896 26.5176 39.0696C27.4513 40.0464 28.6584 40.7976 30 40.7976C31.9536 40.7976 33.4344 39.8328 34.464 38.5488C35.5201 37.224 36 35.6808 36 34.7976C36 34.4794 36.1265 34.1741 36.3515 33.9491C36.5766 33.724 36.8818 33.5976 37.2001 33.5976C37.5121 33.5976 38.4361 33.4008 39.2688 32.6856C40.044 32.0208 40.8 30.8592 40.8 28.7976C40.8 26.4576 40.5 24.8856 40.0272 23.9352C39.8691 23.5813 39.6208 23.2751 39.3073 23.0472C39.037 22.8745 38.7206 22.7882 38.4001 22.8C38.183 22.7999 37.97 22.7409 37.7838 22.6293C37.5976 22.5178 37.4452 22.3578 37.3428 22.1664C37.2403 21.9751 37.1917 21.7595 37.202 21.5427C37.2124 21.3259 37.2814 21.1159 37.4016 20.9352C38.3232 19.5528 38.3904 17.28 37.7209 15.4032C37.3921 14.484 36.9337 13.8 36.4632 13.4184C36.0336 13.0728 35.6304 12.9864 35.1793 13.1376C34.9989 13.1977 34.807 13.214 34.6191 13.1854C34.4312 13.1567 34.2528 13.0839 34.0986 12.9728C33.9445 12.8617 33.8188 12.7156 33.7322 12.5465C33.6455 12.3773 33.6002 12.1901 33.6 12C33.6 10.6368 32.9281 9.46321 31.812 8.59681C30.5972 7.68569 29.1186 7.19532 27.6 7.20001C27.1305 7.1778 26.6705 7.33772 26.316 7.64641C25.9771 7.97292 25.7219 8.37632 25.572 8.82241C25.3436 9.4493 25.2179 10.109 25.2001 10.776V32.4H27C28.656 32.4 30 31.056 30 29.4V24.996C29.1994 24.7129 28.5246 24.1559 28.0949 23.4234C27.6652 22.6909 27.5083 21.8301 27.6519 20.9931C27.7955 20.1561 28.2304 19.3969 28.8797 18.8495C29.5289 18.3021 30.3508 18.0019 31.2001 18.0019C32.0493 18.0019 32.8712 18.3021 33.5204 18.8495C34.1697 19.3969 34.6046 20.1561 34.7482 20.9931C34.8918 21.8301 34.7349 22.6909 34.3052 23.4234C33.8755 24.1559 33.2007 24.7129 32.4 24.996V29.4C32.4 30.8322 31.8311 32.2057 30.8184 33.2184C29.8057 34.2311 28.4322 34.8 27 34.8H25.2001V34.7976ZM15.6 16.8C15.6 17.1183 15.7265 17.4235 15.9515 17.6485C16.1766 17.8736 16.4818 18 16.8 18C17.1183 18 17.4235 17.8736 17.6486 17.6485C17.8736 17.4235 18 17.1183 18 16.8C18 16.4818 17.8736 16.1765 17.6486 15.9515C17.4235 15.7264 17.1183 15.6 16.8 15.6C16.4818 15.6 16.1766 15.7264 15.9515 15.9515C15.7265 16.1765 15.6 16.4818 15.6 16.8ZM31.2001 22.8C31.5183 22.8 31.8235 22.6736 32.0486 22.4485C32.2736 22.2235 32.4 21.9183 32.4 21.6C32.4 21.2818 32.2736 20.9765 32.0486 20.7515C31.8235 20.5264 31.5183 20.4 31.2001 20.4C30.8818 20.4 30.5766 20.5264 30.3515 20.7515C30.1265 20.9765 30 21.2818 30 21.6C30 21.9183 30.1265 22.2235 30.3515 22.4485C30.5766 22.6736 30.8818 22.8 31.2001 22.8ZM16.8 30C16.4818 30 16.1766 30.1264 15.9515 30.3515C15.7265 30.5765 15.6 30.8818 15.6 31.2C15.6 31.5183 15.7265 31.8235 15.9515 32.0485C16.1766 32.2736 16.4818 32.4 16.8 32.4C17.1183 32.4 17.4235 32.2736 17.6486 32.0485C17.8736 31.8235 18 31.5183 18 31.2C18 30.8818 17.8736 30.5765 17.6486 30.3515C17.4235 30.1264 17.1183 30 16.8 30Z" fill="#6DECB9"/>
</svg>
