<svg width="48" height="48" viewBox="0 0 48 48" fill="none" xmlns="http://www.w3.org/2000/svg">
<path d="M11.2406 1.63125C10.3218 1.95938 9.84369 2.68125 9.84369 3.76875V4.40625H8.86869C8.33431 4.40625 7.67806 4.45313 7.40619 4.5C5.84994 4.79063 4.54681 6.06563 4.22806 7.575C4.17181 7.85625 4.12494 9.00938 4.12494 10.2188V12.375H3.35619C2.45619 12.375 1.99681 12.5438 1.52806 13.0406C0.899938 13.7063 0.937438 12.7781 0.937438 26.3906V38.7281L2.57806 42.4031C3.48744 44.4188 4.30306 46.1625 4.40619 46.2656C4.59369 46.4531 4.71556 46.4531 25.4343 46.4813C36.8906 46.4906 46.3593 46.4813 46.4812 46.4531C46.5937 46.425 46.7718 46.3219 46.8749 46.2188C47.0624 46.0313 47.0624 45.8531 47.0624 33.375V20.7094L46.8281 20.4844C46.3499 19.9969 46.3312 20.0063 43.1999 23.1281L40.3218 26.0063L40.2937 16.7813L40.2656 7.54688L40.0406 7.00313C39.6281 5.97188 38.7187 5.07188 37.7156 4.67813C37.2843 4.51875 36.9093 4.4625 35.8874 4.425L34.5937 4.37813V3.85313C34.5937 3.04688 34.4343 2.63438 33.9468 2.14688C33.0187 1.20938 31.5656 1.34063 30.7968 2.41875C30.5437 2.78438 30.5156 2.91563 30.4781 3.61875L30.4499 4.40625H29.1093H27.7781L27.7218 3.7125C27.6468 2.71875 27.3093 2.1375 26.6062 1.77188C25.8374 1.37813 24.9749 1.4625 24.3374 1.9875C23.8593 2.38125 23.6437 2.85 23.5687 3.69375L23.5031 4.40625H22.1718H20.8312L20.8031 3.61875C20.7656 2.91563 20.7374 2.78438 20.4843 2.41875C19.7156 1.34063 18.2624 1.20938 17.3343 2.14688C16.8374 2.63438 16.6874 3.04688 16.6874 3.8625V4.40625H15.3281H13.9687V3.76875C13.9687 3.36563 13.9031 3.00938 13.7906 2.76563C13.3406 1.78125 12.2156 1.275 11.2406 1.63125ZM12.3749 3.09375C12.5531 3.27188 12.5624 3.40313 12.5624 5.175C12.5624 7.32188 12.5343 7.40625 11.8968 7.40625C11.2874 7.40625 11.2499 7.26563 11.2499 5.175C11.2499 3.375 11.2499 3.36563 11.4843 3.14063C11.7562 2.85938 12.1218 2.84063 12.3749 3.09375ZM19.2281 3.08438C19.4531 3.2625 19.4531 3.3 19.4812 5.08125C19.5093 6.81563 19.4999 6.90938 19.3124 7.15313C19.1718 7.33125 19.0312 7.40625 18.8156 7.40625C18.1593 7.40625 18.0937 7.2 18.0937 5.10938C18.0937 3.38438 18.0937 3.36563 18.3281 3.14063C18.5999 2.85938 18.9281 2.84063 19.2281 3.08438ZM26.1093 3.14063C26.3437 3.36563 26.3437 3.375 26.3437 5.20313C26.3437 6.90938 26.3343 7.04063 26.1562 7.21875C25.9312 7.44375 25.4343 7.4625 25.1999 7.24688C25.0499 7.10625 25.0312 6.91875 25.0312 5.20313C25.0312 3.28125 25.0593 3.09375 25.4062 2.97188C25.6968 2.86875 25.8937 2.91563 26.1093 3.14063ZM32.9437 3.10313L33.1874 3.29063V5.14688C33.1874 7.25625 33.1499 7.40625 32.5593 7.40625C31.8937 7.40625 31.8749 7.33125 31.8749 5.19375C31.8749 3.35625 31.8843 3.28125 32.0812 3.09375C32.3437 2.85 32.6249 2.85 32.9437 3.10313ZM9.84369 6.43125C9.84369 7.21875 9.98431 7.67813 10.3406 8.11875C10.7156 8.56875 11.2593 8.8125 11.9249 8.8125C12.5718 8.8125 12.8156 8.72813 13.2656 8.325C13.7812 7.875 13.9687 7.40625 13.9687 6.53438V5.8125H15.3187H16.6593L16.7156 6.57188C16.7812 7.60313 17.0437 8.1 17.7187 8.5125C18.1968 8.80313 18.2812 8.82188 18.9093 8.79375C19.4718 8.76563 19.6406 8.71875 19.9781 8.48438C20.5499 8.08125 20.8124 7.50938 20.8781 6.57188L20.9343 5.8125H22.2749H23.6249V6.51563C23.6249 6.94688 23.6812 7.35938 23.7749 7.575C24.0843 8.33438 24.8156 8.80313 25.6687 8.8125C26.9531 8.8125 27.7499 7.93125 27.7499 6.4875V5.8125H29.1093H30.4687V6.43125C30.4687 7.21875 30.6093 7.67813 30.9656 8.11875C31.7156 9.02813 33.2249 9.05625 34.0499 8.18438C34.4437 7.77188 34.5937 7.30313 34.5937 6.51563V5.8125H35.6062C36.9093 5.8125 37.4249 5.9625 38.0437 6.525C38.3812 6.825 38.5781 7.09688 38.7093 7.4625C38.9062 7.96875 38.9062 8.11875 38.9062 17.7V27.4219L30.0749 36.2531L21.2343 45.0938H13.6031C6.38431 45.0938 5.98119 45.0844 6.02806 44.9344C6.04681 44.8406 6.68431 43.3875 7.44369 41.7094L8.81244 38.6438L8.79369 26.2781L8.76556 13.9031L8.48431 13.4531C8.32494 13.2 8.01556 12.8625 7.79056 12.7031C7.42494 12.4406 7.32181 12.4219 6.44994 12.3938L5.51244 12.3563L5.54994 10.05C5.57806 7.74375 5.57806 7.73438 5.83119 7.25625C6.18744 6.58125 6.82494 6.075 7.54681 5.89688C7.70619 5.85938 8.27806 5.83125 8.84056 5.82188L9.84369 5.8125V6.43125ZM7.13431 13.9594C7.35931 14.1375 7.35931 14.175 7.38744 16.0688L7.41556 18H4.88431H2.34369V16.1344C2.34369 14.4 2.35306 14.2594 2.54056 14.025L2.72806 13.7813H4.82806C6.74056 13.7813 6.93744 13.8 7.13431 13.9594ZM4.12494 28.6406V37.875H3.23431H2.34369V28.6406V19.4063H3.23431H4.12494V28.6406ZM7.40619 28.6406V37.875H6.46869H5.53119V28.6406V19.4063H6.46869H7.40619V28.6406ZM45.6562 25.3594V28.0313H45.1031C44.3999 28.0313 44.0624 28.2656 44.0624 28.7438C44.0624 29.2594 44.3249 29.4375 45.0468 29.4375H45.6562V30.7031V31.9688H45.1031C44.4093 31.9688 44.0624 32.2031 44.0624 32.6719C44.0624 33.1781 44.3437 33.375 45.0656 33.375H45.6562V34.6406V35.9063H45.0468C44.3249 35.9063 44.0624 36.0844 44.0624 36.6C44.0624 37.0781 44.3999 37.3125 45.1031 37.3125H45.6562V38.5781V39.8438H45.0468C44.3249 39.8438 44.0624 40.0219 44.0624 40.5375C44.0624 41.0156 44.3999 41.25 45.1031 41.25H45.6562V43.1719V45.0938H44.9999H44.3437V44.4938C44.3437 43.95 44.3156 43.8656 44.0999 43.6969C43.7906 43.4531 43.4906 43.4438 43.2093 43.6781C43.0312 43.8188 42.9843 43.9594 42.9562 44.475L42.9187 45.0938H41.6624H40.4062V44.5125C40.4062 43.8563 40.1812 43.5 39.7781 43.5C39.2624 43.5 38.9999 43.8938 38.9999 44.6906V45.1031L37.7624 45.075L36.5156 45.0469L36.4687 44.4188C36.4218 43.7344 36.2531 43.5094 35.8124 43.5094C35.3718 43.5094 35.2031 43.7344 35.1562 44.4188L35.1093 45.0469L33.8718 45.075L32.6249 45.1031V44.6906C32.6249 44.4656 32.5781 44.1469 32.5218 43.9781C32.3437 43.4719 31.8187 43.3406 31.4343 43.7063C31.2562 43.875 31.2187 44.0063 31.2187 44.5031V45.0938H29.9531H28.6874V44.625C28.6874 43.65 28.1437 43.2094 27.5249 43.6969C27.3093 43.8656 27.2812 43.95 27.2812 44.4938V45.0938H25.3124C24.2343 45.0938 23.3437 45.0656 23.3437 45.0281C23.3437 44.9625 45.5718 22.6875 45.6281 22.6875C45.6468 22.6875 45.6562 23.8875 45.6562 25.3594ZM6.89056 39.4594C6.79681 39.7781 4.95931 43.8281 4.88431 43.9031C4.82806 43.9594 3.58119 41.325 2.84056 39.5813L2.71869 39.2813H4.83744C6.89056 39.2813 6.94681 39.2906 6.89056 39.4594Z" fill="#6DECB9"/>
<path d="M20.6626 12.7406C20.3251 12.7969 20.1844 13.0406 20.0157 13.8563C19.9219 14.3063 19.8188 14.7281 19.7813 14.8031C19.725 14.9063 18.45 15.4688 18.2532 15.4688C18.2157 15.4688 17.8594 15.225 17.4657 14.9344C16.9969 14.5875 16.6594 14.4094 16.4907 14.4094C16.2 14.4094 16.0313 14.55 14.0438 16.4719C13.0688 17.4 12.8438 17.6719 12.8438 17.8781C12.8438 18.0375 13.0407 18.4406 13.3594 18.9094L13.8657 19.6688L13.5563 20.4C13.3782 20.7938 13.1813 21.15 13.1063 21.1875C13.0407 21.225 12.6188 21.3094 12.1688 21.375C10.9219 21.5438 10.9782 21.4313 10.9032 24.1688C10.8376 26.8406 10.8282 26.8313 11.6907 27C13.1157 27.2906 13.1063 27.2813 13.1532 27.4969C13.1719 27.6094 13.2938 27.9563 13.4063 28.275L13.6219 28.8469L13.0782 29.5875C12.2438 30.7031 12.1876 30.5531 14.3907 32.8313C15.5063 33.9844 15.7782 34.2188 15.9938 34.2188C16.1719 34.2188 16.5469 34.0313 17.0438 33.7031L17.8219 33.1781L18.4313 33.4688C18.7594 33.6188 19.0688 33.75 19.125 33.75C19.275 33.75 19.3688 34.05 19.5 34.9031C19.6688 36.1031 19.5563 36.0563 22.2751 36.1406C25.0219 36.225 24.8907 36.2813 25.1719 34.9219L25.3688 33.9938L26.1469 33.6844L26.925 33.375L27.6938 33.9375C28.125 34.2469 28.5563 34.5 28.65 34.5C28.9219 34.5 29.2594 34.2281 30.8813 32.6625C32.0063 31.575 32.3438 31.2 32.3438 31.0125C32.3438 30.8813 32.1094 30.4219 31.8282 29.9813L31.3125 29.1938L31.6313 28.4625C31.8094 28.0688 31.9688 27.7219 31.9875 27.7031C32.0063 27.6844 32.3344 27.6188 32.7188 27.5625C33.6375 27.4219 33.9657 27.3188 34.0969 27.1125C34.1625 27 34.2282 26.1 34.2657 24.6938C34.35 21.9563 34.4157 22.1063 33.0563 21.8063L32.1375 21.6094L31.8282 20.8406L31.5282 20.0625L32.0719 19.3219C32.8875 18.2063 32.9157 18.3 31.1063 16.3969C29.5969 14.8125 29.3907 14.625 29.1282 14.625C29.0532 14.625 28.6313 14.8594 28.1907 15.15L27.375 15.675L26.6063 15.3563L25.8375 15.0281L25.6875 14.0906C25.6032 13.5656 25.4813 13.0781 25.4157 12.9938C25.35 12.9188 25.1625 12.825 24.9938 12.7969C24.6469 12.7406 20.9251 12.6844 20.6626 12.7406ZM24.3188 14.4563C24.5063 15.6094 24.5813 15.8906 24.7032 16.0406C24.7875 16.125 25.1157 16.2938 25.4344 16.4063C25.7532 16.5188 26.2782 16.7531 26.6063 16.9313C26.925 17.1094 27.2719 17.25 27.3657 17.25C27.4594 17.25 27.8625 17.0344 28.2563 16.7813C28.65 16.5188 29.0063 16.3219 29.0438 16.3219C29.0813 16.3313 29.55 16.7906 30.075 17.3438L31.05 18.3563L30.525 19.05C29.925 19.8469 29.8969 20.0438 30.225 20.7C30.3469 20.9438 30.5532 21.4875 30.6938 21.9188C30.9938 22.8094 31.0313 22.8469 32.1094 23.0625L32.8594 23.2125V23.6063C32.85 23.8219 32.8407 24.4781 32.8313 25.0688L32.8125 26.1375L32.0532 26.25C30.9563 26.4094 30.8907 26.4469 30.6 27.225C30.4594 27.5906 30.2063 28.1531 30.0282 28.4813C29.6344 29.1938 29.6532 29.2875 30.2532 30.1969L30.6938 30.8531L29.7563 31.7906C29.25 32.2969 28.7532 32.7469 28.6594 32.775C28.5563 32.8125 28.275 32.6625 27.8532 32.3531C27.4875 32.0813 27.1125 31.875 26.9813 31.875C26.85 31.875 26.4375 32.0156 26.0532 32.1938C25.6688 32.3625 25.1157 32.5781 24.825 32.6625C24.1875 32.8406 24.1219 32.9438 23.9063 33.9844L23.7563 34.7344L23.0626 34.7625C22.6782 34.7813 22.0126 34.7719 21.5907 34.7344L20.8313 34.6688L20.7188 33.8813C20.5876 32.9438 20.4188 32.6906 19.8375 32.5406C19.6032 32.4844 19.0875 32.2688 18.6938 32.0625C18.2907 31.8563 17.8688 31.6875 17.7469 31.6875C17.625 31.6875 17.2032 31.9031 16.8094 32.175L16.0875 32.6531L15.1219 31.6313C14.5969 31.0688 14.1657 30.5719 14.1563 30.525C14.1563 30.4781 14.3719 30.1594 14.6251 29.8125C15.1688 29.0813 15.2063 28.8094 14.8688 28.1438C14.7469 27.9 14.5594 27.4031 14.4376 27.0469C14.1751 26.2125 13.9688 26.025 13.1532 25.875C12.8063 25.8188 12.4501 25.7438 12.3751 25.725C12.2532 25.6969 12.2438 25.4719 12.2626 24.2625C12.2813 23.475 12.3094 22.8188 12.3282 22.8C12.3376 22.7906 12.7126 22.7156 13.1438 22.65C13.5844 22.575 14.0344 22.4719 14.1376 22.4156C14.2501 22.3594 14.4001 22.0969 14.4938 21.825C14.5782 21.5531 14.8126 21 15.0094 20.6063C15.2157 20.2031 15.3751 19.7813 15.3751 19.6688C15.3751 19.5469 15.1688 19.1344 14.9063 18.75L14.4376 18.0469L15.1688 17.3156C15.5626 16.9125 16.0407 16.4531 16.2282 16.3031L16.575 16.0313L17.2125 16.5C17.5688 16.7625 17.9532 16.9969 18.0657 17.025C18.1875 17.0625 18.5063 16.9688 18.8625 16.8C19.1907 16.65 19.7532 16.4344 20.1094 16.3125C20.475 16.2 20.8219 16.05 20.8876 15.9844C20.9626 15.9188 21.0751 15.5719 21.1501 15.225C21.2251 14.8688 21.3001 14.4844 21.3282 14.3625C21.3751 14.1563 21.4032 14.1563 22.8282 14.1563H24.2719L24.3188 14.4563Z" fill="#6DECB9"/>
<path d="M21.403 19.0688C19.5468 19.5 18.0468 20.8406 17.4093 22.6688C17.1562 23.3719 17.1187 23.6156 17.1187 24.4219C17.1187 25.9219 17.5593 27.075 18.5343 28.1344C19.6312 29.3156 20.9624 29.9063 22.528 29.9063C24.1312 29.9063 25.3968 29.3813 26.4843 28.275C27.5343 27.2063 28.0312 25.9781 28.0405 24.4594C28.0405 23.4844 27.9187 22.9406 27.5062 22.0781C26.8312 20.6625 25.6124 19.6125 24.0937 19.1625C23.3905 18.9563 22.1155 18.9094 21.403 19.0688ZM23.5593 20.4844C24.3374 20.6813 24.8062 20.9531 25.4155 21.5344C27.6937 23.7094 26.6905 27.5813 23.6249 28.4063C23.0249 28.5656 21.9187 28.5375 21.3468 28.35C19.4062 27.7125 18.2062 25.7625 18.5437 23.8125C18.9562 21.4219 21.2624 19.8844 23.5593 20.4844Z" fill="#6DECB9"/>
<path d="M40.9219 31.9688C40.8188 32.0063 38.8875 33.9 36.6375 36.1594C32.925 39.8719 32.5312 40.3031 32.5312 40.575C32.5312 40.7531 32.6063 40.95 32.7188 41.0625C32.8969 41.2406 33.0281 41.25 37.2094 41.25H41.5219L41.7094 41.0063C41.9063 40.7625 41.9063 40.6594 41.9063 36.5906V32.4188L41.6344 32.1469C41.3438 31.8656 41.2313 31.8375 40.9219 31.9688ZM40.4531 39.8156C40.425 39.9094 39.7969 39.9375 37.6875 39.9375C36.1969 39.9375 34.9688 39.9094 34.9688 39.8719C34.9688 39.825 36.2063 38.5594 37.7156 37.05L40.4531 34.3125L40.4813 37.0031C40.4906 38.4844 40.4813 39.75 40.4531 39.8156Z" fill="#6DECB9"/>
</svg>
