<svg width="48" height="48" viewBox="0 0 48 48" fill="none" xmlns="http://www.w3.org/2000/svg">
<path d="M40 6H8C5.794 6 4 7.794 4 10V38C4 40.206 5.794 42 8 42H40C42.206 42 44 40.206 44 38V10C44 7.794 42.206 6 40 6ZM8 38V14H40L40.004 38H8Z" fill="#6DECB9"/>
<path d="M18.5861 18.5859L11.1721 25.9999L18.5861 33.4139L21.4141 30.5859L16.8281 25.9999L21.4141 21.4139L18.5861 18.5859ZM29.4141 18.5859L26.5861 21.4139L31.1721 25.9999L26.5861 30.5859L29.4141 33.4139L36.8281 25.9999L29.4141 18.5859Z" fill="#6DECB9"/>
</svg>
