<svg width="48" height="48" viewBox="0 0 48 48" fill="none" xmlns="http://www.w3.org/2000/svg">
<path d="M34.3125 17.625C35.6979 16.7664 36.7659 15.48 37.3549 13.9603C37.9438 12.4406 38.0217 10.7704 37.5768 9.20246C37.1318 7.63454 36.1883 6.25423 34.8888 5.27044C33.5894 4.28664 32.0049 3.7529 30.375 3.75H17.625C15.9952 3.7529 14.4107 4.28664 13.1113 5.27044C11.8118 6.25423 10.8683 7.63454 10.4233 9.20246C9.97835 10.7704 10.0563 12.4406 10.6452 13.9603C11.2342 15.48 12.3022 16.7664 13.6875 17.625C12.5978 18.2942 11.6979 19.2316 11.0736 20.3477C10.4493 21.4637 10.1215 22.7212 10.1215 24C10.1215 25.2788 10.4493 26.5363 11.0736 27.6523C11.6979 28.7684 12.5978 29.7058 13.6875 30.375C12.5746 31.0615 11.6605 32.027 11.0359 33.1758C10.4114 34.3247 10.098 35.6168 10.1269 36.9241C10.1558 38.2314 10.526 39.5084 11.2008 40.6285C11.8755 41.7486 12.8314 42.6727 13.9736 43.3094C15.1158 43.946 16.4046 44.2729 17.7121 44.2578C19.0196 44.2426 20.3005 43.8858 21.4276 43.2228C22.5547 42.5599 23.4889 41.6138 24.1374 40.4783C24.786 39.3429 25.1265 38.0576 25.1251 36.75V29.3438C25.8752 30.0942 26.7761 30.677 27.7682 31.0535C28.7603 31.43 29.821 31.5917 30.8802 31.5279C31.9394 31.4641 32.973 31.1763 33.9128 30.6834C34.8525 30.1906 35.6769 29.5039 36.3316 28.6688C36.9863 27.8338 37.4564 26.8693 37.7107 25.8391C37.9651 24.8089 37.9979 23.7364 37.8071 22.6926C37.6162 21.6488 37.2061 20.6573 36.6037 19.7838C36.0013 18.9102 35.2204 18.1744 34.3125 17.625ZM35.625 11.25C35.6201 12.6409 35.0654 13.9734 34.0819 14.9569C33.0984 15.9403 31.7659 16.4951 30.375 16.5H25.1251V6H30.375C31.7659 6.00494 33.0984 6.55965 34.0819 7.54315C35.0654 8.52664 35.6201 9.85913 35.625 11.25ZM12.375 11.25C12.38 9.85913 12.9347 8.52664 13.9182 7.54315C14.9017 6.55965 16.2342 6.00494 17.625 6H22.8751V16.5H17.625C16.2342 16.4951 14.9017 15.9403 13.9182 14.9569C12.9347 13.9734 12.38 12.6409 12.375 11.25ZM12.375 24C12.38 22.6091 12.9347 21.2766 13.9182 20.2931C14.9017 19.3097 16.2342 18.7549 17.625 18.75H22.8751V29.25H17.625C16.2342 29.2451 14.9017 28.6903 13.9182 27.7069C12.9347 26.7234 12.38 25.3909 12.375 24ZM17.625 42C16.2327 42 14.8973 41.4469 13.9127 40.4623C12.9282 39.4777 12.375 38.1424 12.375 36.75C12.375 35.3576 12.9282 34.0223 13.9127 33.0377C14.8973 32.0531 16.2327 31.5 17.625 31.5H22.8751V36.75C22.8701 38.1409 22.3154 39.4734 21.3319 40.4569C20.3484 41.4403 19.0159 41.9951 17.625 42ZM30.375 29.25C28.9827 29.25 27.6473 28.6969 26.6627 27.7123C25.6782 26.7277 25.1251 25.3924 25.1251 24C25.1251 22.6076 25.6782 21.2723 26.6627 20.2877C27.6473 19.3031 28.9827 18.75 30.375 18.75C31.7674 18.75 33.1028 19.3031 34.0874 20.2877C35.0719 21.2723 35.6251 22.6076 35.625 24C35.6251 25.3924 35.0719 26.7277 34.0874 27.7123C33.1028 28.6969 31.7674 29.25 30.375 29.25Z" fill="#6DECB9"/>
</svg>
