<svg width="48" height="48" viewBox="0 0 48 48" fill="none" xmlns="http://www.w3.org/2000/svg">
<path d="M6.80627 4.5L9.90002 39.4969L24 43.5L38.0438 39.4969L41.1985 4.5H6.80627ZM34.6969 12.8016L34.4719 15.0141L34.3922 15.9281H17.9203L18.3047 20.3437H34.0125L33.8578 21.4828L32.8641 32.8359L32.7844 33.5953L24.0188 36.0141V36.0281H23.9625L23.9485 36.0328V36.0281H23.9438L15.1032 33.5906L14.5688 26.8125H18.8391L19.1438 30.2437L23.9438 31.5422H23.9625L28.7438 30.2484L29.2782 24.6891H23.9485V24.6844H14.3438L13.275 12.8016L13.1953 11.6625H34.7719L34.6969 12.8016Z" fill="#6DECB9"/>
</svg>
