<svg width="48" height="48" viewBox="0 0 48 48" fill="none" xmlns="http://www.w3.org/2000/svg">
<g clip-path="url(#clip0_32_17)">
<path d="M6.74995 0.871875C6.29058 1.02187 5.50308 1.82812 5.36245 2.30625C5.20308 2.85 5.20308 10.65 5.36245 11.1937C5.51245 11.7094 6.29058 12.4875 6.8062 12.6375C7.34995 12.7969 15.15 12.7969 15.6937 12.6375C16.2093 12.4875 16.9875 11.7094 17.1375 11.1937C17.2968 10.65 17.2968 2.85 17.1375 2.325C17.0812 2.11875 16.8468 1.74375 16.6218 1.5C15.9468 0.740625 15.975 0.75 11.2125 0.759375C8.48433 0.76875 6.96558 0.80625 6.74995 0.871875ZM15.5156 2.48437L15.75 2.70937V6.75V10.7906L15.5156 11.0156L15.2906 11.25H11.25H7.20933L6.98433 11.0156L6.74995 10.7906V6.75V2.70937L6.98433 2.48437L7.20933 2.25H11.25H15.2906L15.5156 2.48437Z" fill="#6DECB9"/>
<path d="M11.7 5.97187L9.75 7.92187L9.3 7.47187C9.05625 7.22812 8.8125 7.03125 8.75625 7.03125C8.63438 7.03125 7.78125 7.90312 7.78125 8.025C7.78125 8.07187 8.22188 8.55 8.76563 9.09375L9.75 10.0781L12.2344 7.59375C13.6031 6.225 14.7188 5.0625 14.7188 5.01562C14.7188 4.89375 13.8563 4.03125 13.7344 4.03125C13.6781 4.03125 12.7688 4.90312 11.7 5.97187Z" fill="#6DECB9"/>
<path d="M21.5905 2.7C20.1374 3.66562 18.9468 4.47187 18.9468 4.5C18.9374 4.55625 24.2155 8.0625 24.2999 8.0625C24.3655 8.0625 25.1249 6.99375 25.1249 6.9C25.1249 6.87187 24.5905 6.4875 23.9343 6.04687L22.7343 5.25H23.8405C28.1905 5.25 32.2218 6.6375 35.6718 9.32812C37.2562 10.5656 39.1218 12.7219 40.1905 14.55C40.4249 14.9531 40.6593 15.2812 40.7155 15.2812C40.8843 15.2812 41.9062 14.6812 41.9062 14.5781C41.9062 14.4 40.7905 12.6375 40.0968 11.7187C39.7312 11.2312 38.9249 10.3219 38.2968 9.69375C36.5718 7.96875 34.9312 6.7875 32.7843 5.76562C30.0093 4.43437 27.0093 3.75 23.9062 3.75H22.7343L23.9343 2.95312C24.5905 2.5125 25.1249 2.12812 25.1249 2.1C25.1249 2.00625 24.3655 0.937499 24.2999 0.937499C24.2624 0.937499 23.0437 1.725 21.5905 2.7Z" fill="#6DECB9"/>
<path d="M20.9813 14.9156C20.7 15.7969 20.5594 15.8625 19.8 15.4781C19.4813 15.3187 19.1719 15.1875 19.1063 15.1875C18.9469 15.1875 15.1875 18.9469 15.1875 19.1062C15.1875 19.1719 15.3188 19.4812 15.4781 19.8C15.8625 20.5594 15.7969 20.7 14.9156 20.9812L14.25 21.1969V24V26.8031L14.9156 27.0187C15.7969 27.3 15.8625 27.4406 15.4781 28.2C15.3188 28.5187 15.1875 28.8281 15.1875 28.8937C15.1875 29.0531 18.9469 32.8125 19.1063 32.8125C19.1719 32.8125 19.4813 32.6812 19.8 32.5219C20.5594 32.1375 20.7 32.2031 20.9813 33.0844L21.1969 33.75H24H26.8031L27.0188 33.0844C27.3 32.2031 27.4406 32.1375 28.2 32.5219C28.5188 32.6812 28.8281 32.8125 28.8938 32.8125C29.0531 32.8125 32.8125 29.0531 32.8125 28.8937C32.8125 28.8281 32.6813 28.5187 32.5219 28.2C32.1375 27.4406 32.2031 27.3 33.0844 27.0187L33.75 26.8031V24V21.1969L33.0844 20.9812C32.2031 20.7 32.1375 20.5594 32.5219 19.8C32.6813 19.4812 32.8125 19.1719 32.8125 19.1062C32.8125 18.9469 29.0531 15.1875 28.8938 15.1875C28.8281 15.1875 28.5188 15.3187 28.2 15.4781C27.4406 15.8625 27.3 15.7969 27.0188 14.9156L26.8031 14.25H24H21.1969L20.9813 14.9156ZM25.9219 16.275L26.1094 16.7906L26.8781 17.1L27.6563 17.4094L28.1438 17.1844L28.6313 16.9594L29.8313 18.1687L31.0406 19.3687L30.8156 19.8562L30.5906 20.3437L30.9 21.1219L31.2094 21.8906L31.725 22.0781L32.25 22.2656V24V25.7344L31.725 25.9219L31.2094 26.1094L30.9 26.8781L30.5906 27.6562L30.8156 28.1437L31.0406 28.6312L29.8313 29.8312L28.6313 31.0406L28.1438 30.8156L27.6563 30.5906L26.8781 30.9L26.1094 31.2094L25.9219 31.725L25.7344 32.25H24H22.2656L22.0781 31.725L21.8906 31.2094L21.1219 30.8906L20.3531 30.5812L19.8656 30.8156L19.3688 31.0406L18.1688 29.8312L16.9594 28.6312L17.1844 28.1437L17.4094 27.6562L17.1 26.8781L16.7906 26.1094L16.275 25.9219L15.75 25.7344V24V22.2656L16.275 22.0781L16.7906 21.8906L17.1 21.1219L17.4094 20.3437L17.1844 19.8562L16.9594 19.3687L18.1688 18.1687L19.3688 16.9594L19.8656 17.1844L20.3531 17.4187L21.1219 17.1094L21.8906 16.7906L22.0781 16.275L22.2656 15.75H24H25.7344L25.9219 16.275Z" fill="#6DECB9"/>
<path d="M22.6969 18.1406C21.6657 18.3656 20.5782 18.975 19.7813 19.7813C17.4375 22.125 17.4188 25.8656 19.7344 28.1719C20.8782 29.3063 22.1344 29.8875 23.6625 29.9719C26.4 30.1219 28.9125 28.3781 29.7469 25.7344C30.0375 24.8063 30.0375 23.1938 29.7469 22.2656C28.8 19.2844 25.7344 17.4844 22.6969 18.1406ZM25.0782 19.6406C26.6907 20.0625 27.9375 21.3188 28.3594 22.9406C28.9688 25.275 27.4782 27.7313 25.0782 28.3594C22.7344 28.9688 20.2688 27.4781 19.6407 25.0781C18.8063 21.8719 21.8719 18.8063 25.0782 19.6406Z" fill="#6DECB9"/>
<path d="M23.2968 21.0844C22.4343 21.3094 21.6749 21.9281 21.2812 22.7344C21.103 23.1187 21.0562 23.3531 21.0562 24C21.0468 24.7312 21.0749 24.8437 21.3655 25.3875C21.7218 26.0437 22.0218 26.325 22.7249 26.7C23.128 26.9062 23.3249 26.9437 23.9999 26.9437C24.6749 26.9437 24.8718 26.9062 25.2749 26.7C25.978 26.325 26.278 26.0437 26.6343 25.3875C26.9249 24.8437 26.953 24.7312 26.9437 24C26.9437 23.325 26.9062 23.1281 26.6999 22.725C26.3343 22.0219 26.0437 21.7219 25.4155 21.3844C24.8062 21.0656 23.878 20.925 23.2968 21.0844ZM24.5905 22.6312C25.5562 23.0344 25.7905 24.2906 25.0405 25.0406C24.4312 25.65 23.5687 25.65 22.9593 25.0406C21.7968 23.8875 23.0812 21.9937 24.5905 22.6312Z" fill="#6DECB9"/>
<path d="M5.3813 16.0031C5.25005 16.3031 4.97817 17.0344 4.7813 17.6437C3.40317 21.7312 3.44067 26.3719 4.87505 30.3C5.03442 30.7219 5.14692 31.0781 5.12817 31.0875C5.10942 31.1062 4.4063 30.7406 3.56255 30.2719C2.70942 29.8031 1.97817 29.4187 1.9313 29.4094C1.88442 29.4 1.68755 29.6719 1.49067 30.0187L1.1438 30.6562L3.9188 32.1844C7.47192 34.1531 7.30317 34.0687 7.35942 33.9187C7.4438 33.675 8.97192 27.2344 8.9438 27.2062C8.91567 27.1594 7.5563 26.8125 7.53755 26.8406C7.50005 26.8687 6.6563 30.4219 6.6563 30.525C6.64692 30.9562 5.8688 28.6219 5.62505 27.4219C4.94067 24.1219 5.24067 20.5781 6.4688 17.3906C6.68442 16.8187 6.8813 16.2844 6.90942 16.2C6.94692 16.0781 6.8063 15.975 6.32817 15.7594C5.9813 15.6 5.6813 15.4687 5.65317 15.4687C5.63442 15.4687 5.51255 15.7125 5.3813 16.0031Z" fill="#6DECB9"/>
<path d="M36.75 18.1219C36.2906 18.2719 35.5031 19.0781 35.3625 19.5563C35.2781 19.8375 35.25 21.0938 35.25 24C35.25 26.9063 35.2781 28.1625 35.3625 28.4438C35.5125 28.9594 36.2906 29.7375 36.8062 29.8875C37.35 30.0469 45.15 30.0469 45.6937 29.8875C46.2094 29.7375 46.9875 28.9594 47.1375 28.4438C47.2969 27.9 47.2969 20.1 47.1375 19.575C47.0812 19.3688 46.8469 18.9938 46.6219 18.75C45.9469 17.9906 45.975 18 41.2125 18.0094C38.4844 18.0188 36.9656 18.0563 36.75 18.1219ZM45.5156 19.7344L45.75 19.9594V24V28.0406L45.5156 28.2656L45.2906 28.5H41.25H37.2094L36.9844 28.2656L36.75 28.0406V24V19.9594L36.9844 19.7344L37.2094 19.5H41.25H45.2906L45.5156 19.7344Z" fill="#6DECB9"/>
<path d="M41.7 23.2219L39.75 25.1719L39.3 24.7219C39.0563 24.4781 38.8125 24.2812 38.7563 24.2812C38.6344 24.2812 37.7812 25.1531 37.7812 25.275C37.7812 25.3219 38.2219 25.8 38.7656 26.3437L39.75 27.3281L42.2344 24.8437C43.6031 23.475 44.7188 22.3125 44.7188 22.2656C44.7188 22.1437 43.8563 21.2812 43.7344 21.2812C43.6781 21.2812 42.7688 22.1531 41.7 23.2219Z" fill="#6DECB9"/>
<path d="M38.4375 32.925C36.6094 33.3844 35.1 33.7688 35.0906 33.7875C35.0812 33.7969 35.1094 33.9563 35.1562 34.1344C35.2031 34.3125 35.2875 34.6313 35.3344 34.8375L35.4375 35.2313L37.4625 34.7156C38.5781 34.4438 39.5344 34.2281 39.5719 34.2375C39.7312 34.2938 38.1469 36.2813 37.1906 37.2469C31.8844 42.5813 23.8125 44.2031 16.875 41.3438C16.5 41.1844 16.1719 41.0625 16.1531 41.0625C16.1062 41.0625 15.5625 42.2719 15.5625 42.3656C15.5625 42.4969 17.7562 43.3031 18.8625 43.5844C20.7469 44.0719 21.7969 44.1938 23.9062 44.2031C26.0156 44.2031 27.0187 44.0906 28.6875 43.6781C31.725 42.9375 34.3031 41.6625 36.7031 39.7219C37.725 38.8969 39.3937 37.1625 40.1156 36.1594C40.4437 35.7094 40.725 35.3531 40.7531 35.3719C40.7719 35.3906 40.8844 36.225 41.0156 37.2188C41.1469 38.2125 41.2594 39.0469 41.2781 39.0656C41.3156 39.0938 42.6656 38.925 42.7125 38.8781C42.7219 38.8688 42.5437 37.3781 42.3187 35.5781C42.0937 33.7688 41.9062 32.2406 41.9062 32.175C41.9062 32.1188 41.8781 32.0625 41.8406 32.0719C41.7937 32.0719 40.2656 32.4563 38.4375 32.925Z" fill="#6DECB9"/>
<path d="M2.24995 35.3719C1.79058 35.5219 1.00308 36.3281 0.862451 36.8063C0.703076 37.35 0.703076 45.15 0.862451 45.6938C1.01245 46.2094 1.79058 46.9875 2.3062 47.1375C2.84995 47.2969 10.65 47.2969 11.1937 47.1375C11.7093 46.9875 12.4875 46.2094 12.6375 45.6938C12.7968 45.15 12.7968 37.35 12.6375 36.825C12.5812 36.6188 12.3468 36.2438 12.1218 36C11.4468 35.2406 11.475 35.25 6.71245 35.2594C3.98433 35.2688 2.46558 35.3063 2.24995 35.3719ZM11.0156 36.9844L11.25 37.2094V41.25V45.2906L11.0156 45.5156L10.7906 45.75H6.74995H2.70933L2.48433 45.5156L2.24995 45.2906V41.25V37.2094L2.48433 36.9844L2.70933 36.75H6.74995H10.7906L11.0156 36.9844Z" fill="#6DECB9"/>
<path d="M7.2 40.4719L5.25 42.4219L4.8 41.9719C4.55625 41.7281 4.3125 41.5312 4.25625 41.5312C4.13438 41.5312 3.28125 42.4031 3.28125 42.525C3.28125 42.5719 3.72188 43.05 4.26563 43.5937L5.25 44.5781L7.73438 42.0937C9.10313 40.725 10.2188 39.5625 10.2188 39.5156C10.2188 39.3937 9.35625 38.5312 9.23438 38.5312C9.17813 38.5312 8.26875 39.4031 7.2 40.4719Z" fill="#6DECB9"/>
</g>
<defs>
<clipPath id="clip0_32_17">
<rect width="48" height="48" fill="white"/>
</clipPath>
</defs>
</svg>
