<svg width="48" height="48" viewBox="0 0 48 48" fill="none" xmlns="http://www.w3.org/2000/svg">
<g clip-path="url(#clip0_33_3)">
<path d="M1.82817 0.168747C1.50004 0.271872 1.20004 0.478122 0.843794 0.843747C-0.0843311 1.77187 4.39165e-05 -0.646878 4.39165e-05 24C4.39165e-05 48.6469 -0.0843311 46.2281 0.843794 47.1562C1.74379 48.0656 0.684419 48 13.8844 48C25.1813 48 25.4063 48 25.9032 47.8125C26.5875 47.5594 27.1219 47.0719 27.4407 46.425L27.7032 45.8906L27.7313 41.2687C27.75 38.7375 27.7782 36.6562 27.7969 36.6562C27.8157 36.6562 28.4344 36.9469 29.175 37.3031C30.75 38.0719 31.1344 38.3719 31.6407 39.2437C32.7375 41.1375 34.6688 42.0844 36.6375 41.7C37.2844 41.5687 37.7532 41.3625 39.8157 40.2844C41.1469 39.5812 42.2907 38.925 42.3657 38.8219C42.6094 38.4562 42.2344 37.7812 41.7844 37.7812C41.6719 37.7812 40.5188 38.325 39.2344 38.9906C37.95 39.6656 36.6938 40.2562 36.4407 40.3219C35.0532 40.65 33.5532 39.8906 32.8407 38.4844C32.7094 38.2312 32.3344 37.7531 32.0157 37.4344C31.4344 36.8531 31.2844 36.7781 25.6688 34.0031C19.5 30.9469 19.3969 30.8906 19.2563 30.1219C19.1157 29.3812 19.5657 28.4719 20.25 28.125C20.9813 27.75 20.925 27.7312 24.8625 29.7937C25.6875 30.225 25.8 30.2625 26.0625 30.1781C26.3719 30.0656 26.5313 29.85 26.5313 29.5125C26.5313 29.4 24.9657 26.3062 23.0438 22.6406C19.6875 16.2375 19.5563 15.9656 19.5563 15.4687C19.5563 14.5031 20.25 13.7062 21.1782 13.6125C21.6938 13.5656 22.2282 13.8 22.5188 14.2031C22.6125 14.325 24.0375 17.0062 25.6969 20.175C27.3469 23.3344 28.7907 26.0156 28.9032 26.1281C29.2219 26.4844 29.8032 26.3437 30 25.8656C30.1032 25.6312 30.0563 25.5 29.5313 24.45C29.2032 23.8125 28.9125 23.25 28.875 23.2031C28.725 23.0156 28.6782 22.425 28.7719 22.0594C28.9032 21.5719 29.5688 20.9437 30.0469 20.85C30.4875 20.7656 31.0782 20.85 31.3594 21.0375C31.4813 21.1219 31.875 21.75 32.2594 22.4719C32.625 23.1844 33 23.8406 33.075 23.925C33.2625 24.1406 33.7688 24.1406 34.0407 23.925C34.3782 23.6437 34.2938 23.3062 33.525 21.8531C33.1313 21.1125 32.8125 20.4 32.8125 20.2687C32.8125 19.8656 33.1688 19.2562 33.5719 18.975C34.0688 18.6375 34.8563 18.5625 35.3438 18.8156C35.6063 18.9562 35.775 19.2094 36.3375 20.2875C36.7125 21 37.0969 21.6656 37.1813 21.7594C37.5469 22.1625 38.3438 21.8531 38.3438 21.3187C38.3438 21.1781 38.025 20.4656 37.6407 19.7344C36.8719 18.2812 36.825 18.0375 37.125 17.4375C37.65 16.4156 39.1969 16.2 39.9563 17.0344C40.2094 17.3156 42.8813 22.4531 43.4907 23.8312C44.175 25.3969 44.775 27.1125 45.3282 29.1187C45.5625 29.9719 45.9282 31.0781 46.1344 31.5656C46.3688 32.1094 46.5375 32.6719 46.5657 32.9906C46.6594 34.0125 46.125 35.1844 45.3094 35.7469C44.6813 36.1781 44.5313 36.3469 44.5313 36.6C44.5313 36.9281 44.9063 37.3312 45.2157 37.3406C45.8344 37.3406 47.0438 36.225 47.5219 35.2125C48.1782 33.8156 48.15 32.55 47.4094 30.9375C47.2313 30.5531 46.95 29.7281 46.7813 29.1094C45.7875 25.3406 45.0844 23.6344 42.45 18.6281C41.4094 16.6594 41.1469 16.2375 40.7532 15.8906C40.1438 15.3375 39.2438 15.0375 38.4188 15.1312C37.275 15.2437 36.2344 15.9562 35.8125 16.9031L35.6344 17.2875H34.6688C33.8438 17.2969 33.6375 17.325 33.2344 17.5312C32.6438 17.8125 31.9782 18.4781 31.725 19.0219L31.5282 19.4437H30.5532C29.6813 19.4531 29.5219 19.4812 29.0438 19.7156C28.7438 19.8656 28.3407 20.1656 28.1344 20.4094L27.7594 20.8312L27.7313 11.475L27.7032 2.10937L27.4407 1.575C27.1219 0.928122 26.5875 0.440622 25.9032 0.187497C25.4157 0.00937176 25.1813 -3.24243e-06 16.8844 -3.24243e-06C8.70004 -3.24243e-06 8.35317 0.00937176 8.14692 0.178122C7.84692 0.421872 7.84692 0.984372 8.14692 1.22812C8.35317 1.39687 8.70004 1.40625 16.8 1.40625C26.1938 1.40625 25.6594 1.36875 26.0813 2.05312C26.2688 2.34375 26.2969 2.54062 26.3344 3.58125L26.3625 4.78125H13.8844H1.40629V3.62812C1.40629 2.3625 1.50942 2.00625 1.99692 1.65C2.23129 1.48125 2.43754 1.44375 3.62817 1.40625C4.91254 1.35937 4.99692 1.35 5.16567 1.13437C5.40942 0.834372 5.39067 0.506247 5.10942 0.234372C4.89379 0.00937176 4.83754 -3.24243e-06 3.59067 0.00937176C2.65317 0.00937176 2.16567 0.0562468 1.82817 0.168747ZM26.325 12.2344C26.3344 15.9 26.3157 18.1875 26.2594 18.1406C26.2125 18.0844 25.8094 17.3625 25.3688 16.5187L24.5625 14.9906V12.6469C24.5625 10.8094 24.5344 10.2469 24.4313 10.05C24.2344 9.66562 23.7938 9.29062 23.4282 9.1875C23.2313 9.13125 19.6032 9.09375 13.7813 9.09375C4.81879 9.09375 4.43442 9.10312 4.05942 9.27187C3.81567 9.38437 3.57192 9.6 3.40317 9.85312L3.14067 10.2562V13.2562C3.14067 16.2375 3.14067 16.2656 3.35629 16.6125C3.47817 16.8 3.73129 17.0531 3.91879 17.175L4.26567 17.3906L11.5032 17.4187L18.7313 17.4375L21.0469 21.8719C22.3219 24.3 23.5594 26.6531 23.7938 27.0844L24.2157 27.8719L23.2875 27.3844C22.7813 27.1125 22.1532 26.8125 21.9 26.7281L21.4407 26.5687L21.2813 25.7719C20.9438 24.1406 20.3719 23.0906 19.125 21.8437C17.8219 20.5406 16.4907 19.8937 14.6625 19.6781C11.0063 19.2469 7.50942 21.6562 6.50629 25.3125C6.24379 26.2594 6.26254 28.2281 6.54379 29.1844C7.29379 31.8 9.26254 33.7687 11.8782 34.5187C12.8344 34.8 14.8032 34.8187 15.75 34.5562C16.875 34.2562 18.675 33.2344 19.2 32.6062C19.3032 32.475 19.5375 32.5687 21.2157 33.4125C22.2563 33.9375 23.8407 34.7156 24.7313 35.1375L26.3532 35.8969L26.325 37.2844L26.2969 38.6719L13.8563 38.7L1.40629 38.7187V22.4531V6.1875L13.8563 6.20625L26.2969 6.23437L26.325 12.2344ZM23.1375 11.6906L23.1657 12.8344L22.5844 12.5344C22.0688 12.2719 21.9188 12.2344 21.2438 12.2344C20.6719 12.2437 20.3719 12.2906 20.0438 12.4406C18.7782 13.0125 18.075 14.0719 18.075 15.3937V16.0312H11.4C6.33754 16.0312 4.69692 16.0031 4.61254 15.9187C4.45317 15.7594 4.45317 10.7719 4.61254 10.6125C4.69692 10.5281 6.84379 10.5 13.9219 10.5187L23.1094 10.5469L23.1375 11.6906ZM14.9063 21.1312C16.6782 21.45 18.2157 22.5094 19.1438 24.0469C19.5282 24.6844 19.8657 25.6125 19.9407 26.2406L19.9875 26.6719L19.4532 26.9437C18.7969 27.2812 18.2532 27.8906 17.9907 28.5844C17.7375 29.2687 17.775 30.4031 18.075 31.0219C18.1875 31.2562 18.2813 31.4719 18.2813 31.5C18.2813 31.5375 18.0282 31.7625 17.7282 32.0062C13.7438 35.1281 7.98754 32.55 7.71567 27.5156C7.57504 24.975 8.96254 22.6875 11.2969 21.6094C12.4782 21.0562 13.6407 20.9062 14.9063 21.1312ZM26.325 42.8625C26.2969 45.525 26.2875 45.6187 26.0813 45.9469C25.6594 46.6406 26.5313 46.5937 13.8563 46.5937C3.21567 46.5937 2.46567 46.5844 2.16567 46.425C1.98754 46.3406 1.75317 46.1437 1.65004 46.0031C1.46254 45.75 1.45317 45.6 1.42504 42.9281L1.39692 40.125H13.875H26.3532L26.325 42.8625Z" fill="#6DECB9"/>
<path d="M14.7469 26.3625L12.3844 28.725L11.5032 27.8625C10.725 27.1031 10.5844 27 10.2844 27C10.0407 27 9.90003 27.0656 9.7594 27.2437C9.40315 27.6937 9.48753 27.8719 10.5282 28.9406C11.5875 30.0375 12.1219 30.4688 12.4125 30.4688C12.5344 30.4688 13.5282 29.5406 15.3469 27.7312C17.8313 25.2562 18.0938 24.9562 18.0938 24.6844C18.0938 24.2812 17.8125 24 17.4094 24C17.1375 24 16.8657 24.2437 14.7469 26.3625Z" fill="#6DECB9"/>
<path d="M11.2501 41.55C10.4439 41.7844 9.9939 42.4312 9.9939 43.3687C9.9939 44.0906 10.3126 44.6719 10.8564 44.9812C11.2126 45.1781 11.3064 45.1875 13.8095 45.1875C15.4126 45.1875 16.4908 45.15 16.6595 45.0844C17.2876 44.85 17.7095 44.1469 17.7189 43.3312C17.7189 42.4875 17.1939 41.7469 16.4251 41.5312C15.9845 41.4094 11.6908 41.4187 11.2501 41.55ZM16.2283 43.0219C16.4158 43.1719 16.4345 43.2375 16.3595 43.4625L16.2658 43.7344L13.9314 43.7625C11.4658 43.7906 11.3439 43.7625 11.3439 43.35C11.3439 42.8719 11.4564 42.8437 13.8283 42.8437C15.8345 42.8437 16.0314 42.8625 16.2283 43.0219Z" fill="#6DECB9"/>
</g>
<defs>
<clipPath id="clip0_33_3">
<rect width="48" height="48" fill="white"/>
</clipPath>
</defs>
</svg>
