<svg width="48" height="48" viewBox="0 0 48 48" fill="none" xmlns="http://www.w3.org/2000/svg">
<g clip-path="url(#clip0_32_31)">
<path d="M28.7813 0.946881C27.2813 1.23751 25.9782 2.56876 25.6876 4.12501C25.6407 4.39688 25.5938 5.55938 25.5938 6.71251V8.81251H17.5782H9.56257V7.65938C9.56257 7.00313 9.50632 6.31876 9.43132 6.04688C8.81257 3.71251 6.45944 2.14688 4.12507 2.50313C2.22194 2.80313 0.628194 4.26563 0.140694 6.15001C0.00944394 6.65626 6.89426e-05 8.74688 0.0188189 25.0875C0.0469439 42.8063 0.0563189 43.4719 0.225069 43.9125C0.534444 44.7 0.862569 45.2156 1.46257 45.825C2.10944 46.4719 3.07507 46.9969 3.92819 47.1563C4.25632 47.2125 10.6407 47.25 22.4438 47.25C42.2344 47.25 41.0063 47.2781 42.2157 46.6781C42.9469 46.3031 43.8657 45.375 44.2501 44.625C44.6532 43.8281 44.8126 43.05 44.8126 41.8313C44.8126 40.9125 44.8313 40.7719 44.9813 40.725C45.0657 40.6969 45.4407 40.5281 45.8063 40.35C46.8282 39.8625 47.5594 38.9719 47.8501 37.8281C47.9813 37.3406 48.0001 35.4 48.0001 20.9438C48.0001 10.4063 47.9626 4.44376 47.9063 4.11563C47.6063 2.53126 46.3126 1.23751 44.7188 0.937506C44.1001 0.825006 29.3907 0.825006 28.7813 0.946881ZM44.8407 2.62501C45.4594 2.85938 45.9751 3.37501 46.2188 4.01251C46.3782 4.41563 46.4063 4.73438 46.4063 5.85938V7.21876H36.7969H27.1876V5.92501C27.1876 5.01563 27.2344 4.48126 27.3376 4.13438C27.5251 3.47813 28.0876 2.87813 28.7157 2.63438C29.1844 2.45626 29.4563 2.44688 36.7688 2.44688C44.1094 2.43751 44.3532 2.44688 44.8407 2.62501ZM5.57819 4.17188C6.60007 4.43438 7.34069 5.09063 7.75319 6.08438L7.96882 6.60938V21.1313V35.6438L7.66882 35.4188C6.45944 34.5 4.71569 34.2281 3.28132 34.725C2.90632 34.8469 2.42819 35.0719 2.22194 35.2219C2.00632 35.3625 1.78132 35.5219 1.71569 35.5594C1.61257 35.625 1.59382 32.9156 1.61257 21.075L1.64069 6.51563L1.90319 5.95313C2.22194 5.26876 2.70944 4.75313 3.30007 4.44376C4.12507 4.02188 4.72507 3.95626 5.57819 4.17188ZM46.4063 19.6406V30.4688H36.7969H27.1876V19.6406V8.81251H36.7969H46.4063V19.6406ZM25.5938 11.625V12.8438H19.8938C14.9907 12.8438 14.1188 12.8625 13.6969 12.9938C13.0219 13.1906 12.4407 13.7438 12.1876 14.4094C12.0001 14.9156 11.9907 15.075 12.0188 19.3969L12.0469 23.8594L12.2813 24.3188C12.5438 24.8344 12.9001 25.1625 13.5001 25.4438C13.9126 25.6313 14.0626 25.6406 19.7626 25.6688L25.5938 25.6969V26.8594V28.0313H23.1563C20.4657 28.0313 20.2219 28.0781 20.0907 28.575C19.9876 28.9594 20.0438 29.1844 20.3063 29.4094C20.5407 29.625 20.5782 29.625 23.0719 29.625H25.5938V30.8438V32.0625H19.0501C12.6001 32.0625 12.4969 32.0625 12.3001 32.25C11.8688 32.6531 11.9532 33.2719 12.4688 33.5344C12.6469 33.6281 14.1844 33.6563 19.1532 33.6563H25.5938V35.3625C25.5938 37.3031 25.7157 38.0906 26.1282 38.7844C26.7376 39.8438 27.8719 40.6125 29.0813 40.7813C29.4094 40.8281 32.7188 40.875 36.4501 40.875H43.2188V41.7375C43.2094 43.65 42.6376 44.7188 41.2501 45.3656L40.7344 45.6094H22.4063H4.07819L3.50632 45.3469C2.79382 45.0188 2.24069 44.4656 1.90319 43.7344L1.64069 43.1719V40.8281V38.4844L1.89382 37.95C2.19382 37.3031 2.80319 36.675 3.42194 36.375C4.10632 36.0375 5.19382 36 5.94382 36.2906C7.04069 36.6938 7.80007 37.6969 7.97819 38.9625C8.04382 39.4688 8.11882 39.6563 8.30632 39.8156C8.62507 40.0969 9.03757 40.0969 9.32819 39.7969L9.56257 39.5719V25.05C9.56257 17.0625 9.59069 10.5 9.62819 10.4719C9.65632 10.4344 13.2657 10.4063 17.6438 10.4063H25.5938V11.625ZM25.5938 16.2188C25.5938 17.1938 25.5657 18 25.5376 18C25.4626 18 17.0344 14.5313 16.9782 14.475C16.9594 14.4563 18.8813 14.4375 21.2626 14.4375H25.5938V16.2188ZM18.9094 17.025C21.7313 18.1875 24.0844 19.1719 24.1219 19.2094C24.1594 19.2469 21.8438 20.25 18.9657 21.4406C15.4501 22.8938 13.7157 23.5688 13.6688 23.4938C13.5751 23.3625 13.5751 15.0563 13.6594 14.9719C13.6876 14.9344 13.7344 14.9063 13.7438 14.9063C13.7626 14.9063 16.0876 15.8531 18.9094 17.025ZM25.5657 23.9719C25.5469 23.9906 23.6251 23.9906 21.3001 23.9813L17.0719 23.9531L21.3094 22.2094L25.5469 20.4563L25.5751 22.2C25.5844 23.1469 25.5844 23.9531 25.5657 23.9719ZM46.4063 34.575C46.4063 37.4063 46.3501 37.7625 45.8063 38.4094C45.6188 38.6156 45.2626 38.8875 44.9813 39.0094L44.4844 39.2344H36.7969C29.1938 39.2344 29.1094 39.2344 28.6876 39.0375C28.0876 38.7563 27.7313 38.4281 27.4688 37.9125C27.2344 37.4625 27.2344 37.4156 27.2063 34.7531L27.1782 32.0625H36.7876H46.4063V34.575Z" fill="#6DECB9"/>
<path d="M34.9126 4.125C34.3876 4.34063 34.2563 4.9875 34.6501 5.38125L34.9032 5.625H36.797H38.6907L38.9438 5.38125C39.2532 5.0625 39.2626 4.6875 38.9626 4.34063L38.7376 4.07813L36.9188 4.05938C35.9251 4.05 35.0157 4.07813 34.9126 4.125Z" fill="#6DECB9"/>
<path d="M30.1407 10.4906C29.6438 10.6219 29.2688 10.8656 29.0438 11.2219C28.8282 11.5781 28.8282 11.5781 28.8 15.3281C28.7813 17.3906 28.8 19.2562 28.8282 19.4812C28.8938 19.9219 29.2875 20.4469 29.7282 20.6812C29.9532 20.7937 31.0407 20.8125 36.8063 20.8125C43.5 20.8125 43.6219 20.8125 43.9594 20.6156C44.1469 20.5125 44.4094 20.2781 44.5313 20.0906L44.7657 19.7437L44.7938 15.7781C44.8125 12.0187 44.8125 11.7844 44.6344 11.3906C44.5125 11.1187 44.3157 10.8937 44.0438 10.7156L43.6407 10.4531L37.0313 10.4344C33.3938 10.425 30.3 10.4531 30.1407 10.4906ZM40.9688 12.1312C40.7625 12.3187 36.9094 14.6531 36.7969 14.6531C36.6844 14.6531 32.8313 12.3187 32.625 12.1312C32.5125 12.0187 33.1782 12 36.7969 12C40.4532 12 41.0813 12.0187 40.9688 12.1312ZM32.8875 14.1937L35.2594 15.6375L34.4344 16.1437C31.7719 17.7844 30.4875 18.5625 30.4313 18.5625C30.4032 18.5625 30.375 17.25 30.375 15.6562C30.375 14.0531 30.4125 12.75 30.45 12.75C30.4875 12.75 31.5844 13.3969 32.8875 14.1937ZM43.2188 15.6562C43.2188 17.25 43.2 18.5625 43.1719 18.5625C43.0688 18.5625 38.4375 15.7031 38.4375 15.6469C38.4375 15.5719 43.0313 12.75 43.1438 12.75C43.1907 12.75 43.2188 14.0531 43.2188 15.6562ZM38.9719 17.9062L41.0532 19.1719L38.9532 19.2C37.8 19.2094 35.8875 19.2094 34.7063 19.2L32.55 19.1719L34.6688 17.8781C35.8407 17.175 36.8157 16.6031 36.8438 16.6125C36.8719 16.6312 37.8375 17.2125 38.9719 17.9062Z" fill="#6DECB9"/>
<path d="M30.2156 22.4719C29.925 22.5281 29.625 22.9313 29.625 23.2688C29.625 23.4281 29.7188 23.6344 29.8594 23.7656C30.0844 24 30.0938 24 31.9688 24C33.0094 24 33.9281 23.9625 34.0219 23.9063C34.3125 23.7563 34.4531 23.2969 34.3031 22.9594C34.1063 22.4813 33.7875 22.4063 31.9969 22.4156C31.1344 22.425 30.3281 22.4531 30.2156 22.4719Z" fill="#6DECB9"/>
<path d="M36.4968 22.5469C35.9624 22.7812 35.8593 23.3906 36.2812 23.8125C36.4593 23.9906 36.6093 24 40.3687 24C42.6843 24 44.3343 23.9625 44.4281 23.9062C44.7187 23.7562 44.8593 23.2969 44.7093 22.9594C44.4937 22.425 44.3531 22.4062 40.3874 22.4062C37.5093 22.4156 36.7406 22.4437 36.4968 22.5469Z" fill="#6DECB9"/>
<path d="M29.8595 25.9219C29.5595 26.2125 29.5595 26.625 29.8501 26.9719L30.0751 27.2344L36.9564 27.2625C41.7282 27.2812 43.9314 27.2625 44.1751 27.1875C44.7939 27.0094 44.9814 26.325 44.5314 25.875C44.3439 25.6875 44.1845 25.6875 37.2189 25.6875H30.0845L29.8595 25.9219Z" fill="#6DECB9"/>
<path d="M12.4687 28.1531C11.9531 28.4156 11.8687 29.0344 12.3 29.4375C12.4968 29.6156 12.6187 29.625 14.775 29.625C17.0343 29.625 17.0531 29.625 17.3062 29.4C17.6437 29.1187 17.6718 28.5937 17.3625 28.2844C17.1562 28.0875 17.0906 28.0781 14.925 28.05C13.2656 28.0312 12.6468 28.0594 12.4687 28.1531Z" fill="#6DECB9"/>
<path d="M35.5031 32.9531C34.6219 33.2625 34.4062 33.7219 34.4062 35.2688C34.4062 36.2906 34.4344 36.4688 34.6219 36.7969C34.9219 37.3313 35.325 37.5656 36.0656 37.65C36.8625 37.7344 37.9875 37.6406 38.3438 37.4531C38.4938 37.3781 38.7375 37.1625 38.8781 36.9656C39.1313 36.6375 39.1406 36.5719 39.1688 35.4469C39.1875 34.7625 39.1594 34.125 39.1031 33.9281C38.9719 33.5063 38.475 33.0469 37.9969 32.9156C37.4906 32.775 35.9344 32.7938 35.5031 32.9531ZM37.5938 35.2031V36H36.7969H36V35.2031V34.4063H36.7969H37.5938V35.2031Z" fill="#6DECB9"/>
</g>
<defs>
<clipPath id="clip0_32_31">
<rect width="48" height="48" fill="white"/>
</clipPath>
</defs>
</svg>
