<svg width="48" height="48" viewBox="0 0 48 48" fill="none" xmlns="http://www.w3.org/2000/svg">
<path d="M37 19.02C35.5001 18.5034 34.1762 17.5746 33.18 16.34C32.0821 14.9644 30.6841 13.8583 29.093 13.106C27.5019 12.3538 25.7598 11.9755 24 12C21.6327 11.8323 19.2892 12.5625 17.436 14.045C15.5829 15.5275 14.3561 17.6536 14 20C14.7013 18.8265 15.7569 17.9057 17.0148 17.3702C18.2727 16.8347 19.668 16.7121 21 17.02C22.4974 17.5516 23.8192 18.4858 24.82 19.72C25.9239 21.0845 27.3246 22.1793 28.9153 22.921C30.5061 23.6626 32.2451 24.0317 34 24C36.3673 24.1676 38.7108 23.4375 40.564 21.955C42.4171 20.4724 43.6439 18.3463 44 16C43.3114 17.1875 42.2592 18.1222 40.9987 18.666C39.7383 19.2098 38.3364 19.3339 37 19.02ZM11 28.98C12.4999 29.4966 13.8238 30.4254 14.82 31.66C15.9179 33.0355 17.3159 34.1417 18.907 34.8939C20.4981 35.6462 22.2402 36.0245 24 36C26.3673 36.1676 28.7108 35.4375 30.564 33.955C32.4171 32.4724 33.6439 30.3463 34 28C33.2987 29.1735 32.2431 30.0942 30.9852 30.6297C29.7273 31.1652 28.332 31.2879 27 30.98C25.5026 30.4484 24.1808 29.5141 23.18 28.28C22.0731 26.9188 20.6719 25.8264 19.0818 25.0851C17.4917 24.3438 15.7542 23.9727 14 24C11.6327 23.8323 9.28917 24.5625 7.43601 26.045C5.58286 27.5275 4.35608 29.6536 4 32C4.68861 30.8124 5.74082 29.8778 7.00127 29.334C8.26172 28.7902 9.66362 28.6661 11 28.98Z" fill="#6DECB9"/>
</svg>
