<svg width="48" height="48" viewBox="0 0 48 48" fill="none" xmlns="http://www.w3.org/2000/svg">
<g clip-path="url(#clip0_32_41)">
<path d="M11.6531 0.890615C10.4531 1.21874 9.34688 2.09062 8.79375 3.14062L8.49375 3.74062L6.04688 3.76874L3.6 3.79687L2.8875 4.14374C2.03438 4.56562 1.50938 5.10937 1.09688 5.98124L0.796877 6.60937V12V17.3906L1.09688 18.0187C1.50938 18.8906 2.03438 19.4344 2.8875 19.8562L3.6 20.2031L7.04063 20.2312L10.4906 20.2594L10.0875 20.8875C8.82188 22.8469 8.29688 24.6469 8.29688 27C8.29688 29.0156 8.67188 30.5437 9.57188 32.2406L10.0406 33.1219L9.525 33.6469L9 34.1625L8.625 33.7969L8.24063 33.4219L4.79063 36.8906C0.778127 40.9219 0.796877 40.8937 0.796877 42.3281C0.796877 43.0406 0.834377 43.2562 1.05 43.7062C1.39688 44.4469 1.96875 45.0375 2.70938 45.4031C3.27188 45.675 3.40313 45.7031 4.17188 45.6937C5.64375 45.6844 5.5875 45.7219 9.60938 41.7187L13.0781 38.2594L12.7031 37.875L12.3375 37.5L12.8531 36.975L13.3781 36.4594L14.2594 36.9281C15.1969 37.425 16.4156 37.8656 17.4844 38.0719C18.45 38.2687 20.7563 38.2406 21.75 38.025C25.1531 37.2937 28.0125 35.0812 29.5688 31.9875C29.9344 31.2656 30.4688 29.7375 30.4688 29.4281C30.4688 29.2594 30.5719 29.25 32.8594 29.25H35.25V31.0781V32.9062L37.95 31.1062L40.6406 29.2969L41.7844 29.2406C42.8625 29.1844 42.9844 29.1656 43.6313 28.8469C44.4656 28.4344 45 27.8812 45.4031 27.0187L45.7031 26.3906V21V15.6094L45.4031 14.9812C44.9906 14.1094 44.4656 13.5656 43.6125 13.1437L42.9 12.7969L40.4531 12.7687L38.0063 12.7406L37.7063 12.1406C36.975 10.7344 35.3438 9.74999 33.75 9.74999C32.1563 9.74999 30.525 10.7344 29.7938 12.15L29.4844 12.75H27.2625C26.0438 12.75 24.9844 12.7781 24.9 12.8062C24.7781 12.8531 24.7594 12.4875 24.7313 9.73124L24.7031 6.59999L24.3563 5.88749C23.9344 5.03437 23.3906 4.50937 22.5188 4.09687L21.8906 3.79687L19.4531 3.76874L17.0063 3.74062L16.7063 3.14062C15.7781 1.35937 13.5656 0.37499 11.6531 0.890615ZM14.1656 2.63437C14.7938 2.97187 15.0844 3.27187 15.45 3.97499C15.6563 4.37812 15.6938 4.57499 15.6938 5.24999C15.7031 5.98124 15.675 6.09374 15.3844 6.63749C15.0281 7.29374 14.7281 7.57499 14.025 7.94999C13.6219 8.15624 13.425 8.19374 12.75 8.19374C12.075 8.19374 11.8781 8.15624 11.475 7.94999C10.7719 7.57499 10.4719 7.29374 10.1156 6.63749C9.825 6.09374 9.79688 5.98124 9.80625 5.24999C9.80625 4.31249 10.0313 3.74999 10.6406 3.14062C11.5781 2.20312 12.975 2.00624 14.1656 2.63437ZM8.30625 5.89687C8.44688 6.75937 8.85938 7.61249 9.45938 8.26874C9.89063 8.73749 9.92813 8.82187 9.77813 8.87812C9.28125 9.05624 8.25 9.74999 7.66875 10.2937C6 11.8687 5.25 13.6875 5.25 16.1812V17.25H9.58125H13.9031L13.35 17.6062C13.05 17.8125 12.5906 18.15 12.3281 18.3562L11.8594 18.75H8.025C5.2875 18.75 4.0875 18.7219 3.80625 18.6375C3.29063 18.4875 2.5125 17.7094 2.3625 17.1937C2.20313 16.6406 2.20313 7.35937 2.3625 6.80624C2.50313 6.32812 3.29063 5.52187 3.75 5.37187C3.94688 5.31562 4.93125 5.26874 6.14063 5.25937L8.2125 5.24999L8.30625 5.89687ZM21.6938 5.36249C22.2094 5.51249 22.9875 6.29062 23.1375 6.80624C23.2125 7.07812 23.25 8.14687 23.25 10.3594V13.5187L23.0063 13.7156C22.6313 14.0062 22.0688 14.9344 21.9281 15.4781L21.8063 15.9469L21.0938 15.8906C20.7094 15.8531 20.3625 15.7969 20.3344 15.7594C20.3063 15.7312 20.2313 15.3094 20.1656 14.8312C20.0438 13.8187 19.6594 12.7125 19.1625 11.8875C18.4688 10.7531 16.9594 9.39374 15.8906 8.95312L15.5531 8.80312L16.0406 8.26874C16.6406 7.61249 17.0531 6.75937 17.1938 5.89687L17.2875 5.24999H19.3031C20.5969 5.24999 21.4406 5.28749 21.6938 5.36249ZM12.975 10.05C13.0219 10.3687 13.4063 15.3 13.4063 15.5812C13.4063 15.7219 13.3125 15.75 12.75 15.75C12.1875 15.75 12.0938 15.7219 12.0938 15.5812C12.0938 15.3 12.4781 10.3687 12.525 10.05C12.5625 9.83437 12.6188 9.74999 12.75 9.74999C12.8813 9.74999 12.9375 9.83437 12.975 10.05ZM10.9406 10.8469C10.9031 11.3062 10.8094 12.5906 10.725 13.7062L10.5656 15.75H8.64375H6.72188L6.7875 15.1125C6.98438 13.1719 8.27813 11.2969 10.0406 10.425C10.4719 10.2094 10.8656 10.0312 10.9125 10.0312C10.9594 10.0312 10.9688 10.3875 10.9406 10.8469ZM15.4594 10.425C17.2125 11.2969 18.5156 13.1625 18.7125 15.1125L18.7781 15.75H16.8563H14.9344L14.775 13.7062C14.5219 10.4156 14.5031 10.0312 14.5875 10.0312C14.625 10.0312 15.0188 10.2094 15.4594 10.425ZM35.1656 11.6344C35.7938 11.9719 36.0844 12.2719 36.45 12.975C36.6563 13.3781 36.6938 13.575 36.6938 14.25C36.7031 14.9812 36.675 15.0937 36.3844 15.6375C36.0281 16.2937 35.7281 16.575 35.025 16.95C34.6219 17.1562 34.425 17.1937 33.75 17.1937C33.075 17.1937 32.8781 17.1562 32.475 16.95C31.7719 16.575 31.4719 16.2937 31.1156 15.6375C30.825 15.0937 30.7969 14.9812 30.8063 14.25C30.8063 13.3125 31.0313 12.75 31.6406 12.1406C32.5781 11.2031 33.975 11.0062 35.1656 11.6344ZM29.3063 14.8969C29.4469 15.7594 29.8594 16.6125 30.4594 17.2687L30.9469 17.8031L30.525 17.9812C29.9531 18.2437 29.0906 18.8437 28.5656 19.35L28.125 19.7719L27.6844 19.2937C26.7469 18.2906 25.3313 17.2969 24.0094 16.7156C23.325 16.425 23.2969 16.3969 23.325 16.1156C23.3813 15.45 24.0563 14.6344 24.7594 14.3812C24.975 14.3062 25.7719 14.2594 27.1406 14.2594L29.2125 14.25L29.3063 14.8969ZM42.6938 14.3625C43.2094 14.5125 43.9875 15.2906 44.1375 15.8062C44.2219 16.0875 44.25 17.5031 44.25 21C44.25 24.4969 44.2219 25.9125 44.1375 26.1937C43.9875 26.7094 43.2094 27.4875 42.6938 27.6375C42.4781 27.7031 41.85 27.75 41.2875 27.75H40.2656L38.5031 28.9219L36.75 30.0937V28.9219V27.75H33.75H30.75V27V26.25H36H41.25V25.1906C41.2406 22.8094 40.6219 21.1594 39.1594 19.6219C38.5031 18.9281 37.5375 18.2156 36.8906 17.9531L36.5531 17.8031L37.0406 17.2687C37.6406 16.6125 38.0531 15.7594 38.1938 14.8969L38.2875 14.25H40.3031C41.5969 14.25 42.4406 14.2875 42.6938 14.3625ZM20.8688 17.3531C22.2188 17.5406 23.9063 18.1969 25.0219 18.9656C25.6313 19.3875 26.85 20.5687 27.3469 21.225C29.175 23.6719 29.7375 27.1594 28.7531 30.0469C28.2563 31.5094 27.5906 32.5875 26.4844 33.7312C23.475 36.8719 18.975 37.6312 15.0469 35.6531C14.0719 35.1562 13.3313 34.5937 12.4594 33.6844C11.625 32.8125 11.2969 32.3531 10.8 31.35C9.40313 28.575 9.40313 25.425 10.8 22.65C11.3156 21.6094 11.6344 21.1687 12.5063 20.2687C13.3875 19.3594 14.1094 18.8156 15.15 18.3C16.9313 17.4 18.9 17.0812 20.8688 17.3531ZM33.975 19.05C34.0219 19.3687 34.4063 24.3 34.4063 24.5812C34.4063 24.7219 34.3125 24.75 33.75 24.75C33.1406 24.75 33.0938 24.7406 33.0938 24.5437C33.0938 24.2062 33.4688 19.3875 33.525 19.05C33.5531 18.8344 33.6188 18.75 33.75 18.75C33.8813 18.75 33.9375 18.8344 33.975 19.05ZM31.7906 21.8625C31.6781 23.175 31.5938 24.3562 31.5938 24.4969C31.5938 24.7406 31.5844 24.75 31.0313 24.75C30.5438 24.75 30.4688 24.7312 30.4688 24.5719C30.4688 24.2156 29.8875 22.6219 29.4844 21.8625C29.0156 20.9812 29.0156 20.9531 29.5969 20.4281C30.15 19.9312 30.8344 19.4812 31.4063 19.2469L31.9219 19.0406L31.95 19.2656C31.9688 19.3875 31.8938 20.5594 31.7906 21.8625ZM36.4594 19.425C38.2125 20.2969 39.5156 22.1625 39.7125 24.1125L39.7781 24.75H37.8563H35.9344L35.775 22.7062C35.5219 19.4156 35.5031 19.0312 35.5875 19.0312C35.625 19.0312 36.0188 19.2094 36.4594 19.425ZM11.5781 34.9687L12.1406 35.5312L11.6906 35.9719L11.25 36.4219L10.6688 35.8406L10.0875 35.25L10.5 34.8281C10.725 34.5937 10.9406 34.4062 10.9688 34.4062C10.9969 34.4062 11.2688 34.6594 11.5781 34.9687ZM9.60938 36.9375L10.9219 38.25L8.10938 41.0719C6.29063 42.9 5.16563 43.9594 4.92188 44.0719C4.37813 44.325 3.8625 44.2969 3.27188 43.9875C2.41875 43.5469 2.03438 42.5156 2.39063 41.6437C2.49375 41.4094 3.47813 40.3594 5.37188 38.4562C6.92813 36.9 8.22188 35.625 8.25 35.625C8.27813 35.625 8.8875 36.2156 9.60938 36.9375Z" fill="#6DECB9"/>
<path d="M3.75 7.5V8.25H4.5H5.25V7.5V6.75H4.5H3.75V7.5Z" fill="#6DECB9"/>
<path d="M3.75 10.5V11.25H4.5H5.25V10.5V9.75H4.5H3.75V10.5Z" fill="#6DECB9"/>
<path d="M41.25 16.5V17.25H42H42.75V16.5V15.75H42H41.25V16.5Z" fill="#6DECB9"/>
<path d="M41.25 19.5V20.25H42H42.75V19.5V18.75H42H41.25V19.5Z" fill="#6DECB9"/>
<path d="M17.9626 18.9C14.6813 19.4906 11.9719 22.2375 11.3907 25.5468C10.4157 31.1718 15.3001 36.0937 20.8876 35.1187C25.3782 34.3312 28.3969 30.0562 27.6188 25.6031C26.8219 21.0656 22.5188 18.075 17.9626 18.9ZM21.5157 20.5687C22.5751 20.9062 23.3719 21.4031 24.2344 22.2656C25.0876 23.1187 25.5844 23.9062 25.9407 24.9843C26.1563 25.65 26.1844 25.8843 26.1844 27C26.1844 28.1156 26.1563 28.35 25.9407 29.0156C25.5844 30.0937 25.0876 30.8812 24.2344 31.7343C23.3813 32.5875 22.5938 33.0843 21.5157 33.4406C20.8501 33.6562 20.6157 33.6843 19.5001 33.6843C18.3844 33.6843 18.1501 33.6562 17.4844 33.4406C16.4157 33.0843 15.6282 32.5968 14.7657 31.7343C13.9126 30.8812 13.4157 30.0937 13.0594 29.0156C12.8438 28.35 12.8157 28.1156 12.8157 27C12.8063 25.8937 12.8438 25.6406 13.0501 25.0125C13.4251 23.8875 13.9126 23.1 14.7563 22.2656C15.8251 21.2062 16.9782 20.5875 18.3188 20.3437C19.1532 20.1937 20.6719 20.2968 21.5157 20.5687Z" fill="#6DECB9"/>
<path d="M30.75 33.8719C30.2906 34.0219 29.5031 34.8281 29.3625 35.3062C29.2031 35.8594 29.2031 45.1406 29.3625 45.6937C29.5125 46.2094 30.2906 46.9875 30.8062 47.1375C31.3593 47.2969 45.1406 47.2969 45.6937 47.1375C46.2093 46.9875 46.9875 46.2094 47.1375 45.6937C47.2968 45.15 47.2968 35.8594 47.1375 35.325C47.0812 35.1187 46.8468 34.7437 46.6218 34.5C45.9187 33.7125 46.3312 33.75 38.2125 33.7594C33.3 33.7687 30.975 33.7969 30.75 33.8719ZM45.5156 35.4844L45.75 35.7094V40.5V45.2906L45.5156 45.5156L45.2906 45.75H38.25H31.2093L30.9843 45.5156L30.75 45.2906V40.5V35.7094L30.9843 35.4844L31.2093 35.25H38.25H45.2906L45.5156 35.4844Z" fill="#6DECB9"/>
<path d="M32.25 40.5V44.25H38.25H44.25V43.5V42.75H43.5H42.75V40.5V38.25H42H41.25V40.5V42.75H40.5H39.75V41.25V39.75H39H38.25V41.25V42.75H37.5H36.75V42V41.25H36H35.25V42V42.75H34.5H33.75V39.75V36.75H33H32.25V40.5Z" fill="#6DECB9"/>
</g>
<defs>
<clipPath id="clip0_32_41">
<rect width="48" height="48" fill="white"/>
</clipPath>
</defs>
</svg>
