<svg width="48" height="48" viewBox="0 0 48 48" fill="none" xmlns="http://www.w3.org/2000/svg">
<g clip-path="url(#clip0_32_57)">
<path d="M1.92185 0.168753C0.993726 0.487503 0.290601 1.26563 0.0937256 2.18438C0.0187256 2.53125 -2.43641e-05 8.75625 0.0187256 24.2813L0.0468506 45.8906L0.243726 46.3219C0.506226 46.8844 1.1156 47.4938 1.6781 47.7563L2.10935 47.9531H24H45.8906L46.3219 47.7563C46.8844 47.4938 47.4937 46.8844 47.7562 46.3219L47.9531 45.8906V24V2.10938L47.7562 1.67813C47.4937 1.11563 46.8844 0.506253 46.3219 0.243753L45.8906 0.0468779L24.1406 0.0281279C3.7031 0.00937786 2.36248 0.0187529 1.92185 0.168753ZM45.8156 2.18438L46.0781 2.4375L46.1062 4.96875L46.1344 7.5H24H1.8656L1.89373 4.97813C1.92185 2.60625 1.93123 2.44688 2.10935 2.25C2.21248 2.1375 2.38123 2.00625 2.48435 1.95938C2.58748 1.92188 12.3187 1.89375 24.1125 1.90313L45.5625 1.92188L45.8156 2.18438ZM46.1062 27.4688L46.0781 45.5625L45.8156 45.8156L45.5625 46.0781H24H2.43748L2.18435 45.8156L1.92185 45.5625L1.89373 27.4688L1.87498 9.375H24H46.125L46.1062 27.4688Z" fill="#6DECB9"/>
<path d="M27.975 3.84375C27.675 3.96563 27.375 4.39688 27.375 4.69688C27.375 5.07188 27.8063 5.52188 28.2281 5.5875C28.5188 5.63438 28.6219 5.59688 28.8844 5.3625C29.1469 5.12813 29.2031 5.01563 29.2031 4.6875C29.2031 4.35938 29.1469 4.24688 28.8938 4.02188C28.5844 3.75 28.3313 3.69375 27.975 3.84375Z" fill="#6DECB9"/>
<path d="M31.725 3.84374C31.425 3.96562 31.125 4.39687 31.125 4.69687C31.125 4.86562 31.2281 5.08124 31.3969 5.26874L31.6688 5.57812L33.8719 5.60624L36.0844 5.63437L36.3938 5.36249C36.6469 5.12812 36.7031 5.01562 36.7031 4.68749C36.7031 4.35937 36.6469 4.24687 36.3938 4.02187L36.0938 3.74999L34.0031 3.75937C32.8594 3.75937 31.8281 3.79687 31.725 3.84374Z" fill="#6DECB9"/>
<path d="M39.225 3.84374C38.925 3.96562 38.625 4.39687 38.625 4.69687C38.625 4.86562 38.7281 5.08124 38.8969 5.26874L39.1688 5.57812L41.3719 5.60624L43.5844 5.63437L43.8938 5.36249C44.1469 5.12812 44.2031 5.01562 44.2031 4.68749C44.2031 4.35937 44.1469 4.24687 43.8938 4.02187L43.5938 3.74999L41.5031 3.75937C40.3594 3.75937 39.3281 3.79687 39.225 3.84374Z" fill="#6DECB9"/>
<path d="M6.79688 13.7719C6.69375 13.8187 6.525 13.95 6.42188 14.0625C6.24375 14.2594 6.23438 14.4 6.23438 17.4469V20.625L6.49688 20.8781L6.75 21.1406L23.9531 21.1687L41.1563 21.1875L41.4563 20.9156L41.7656 20.6437V17.4375V14.2312L41.4563 13.9594L41.1563 13.6875L24.0656 13.6969C14.6719 13.6969 6.9 13.7344 6.79688 13.7719ZM39.9375 17.4375V19.3125H24H8.0625V17.4375V15.5625H24H39.9375V17.4375Z" fill="#6DECB9"/>
<path d="M6.79688 25.3031C6.69375 25.35 6.525 25.4812 6.42188 25.5937C6.23438 25.8 6.23438 25.9312 6.23438 33.6656V41.5312L6.49688 41.7844L6.75 42.0469L12.7031 42.075L18.6469 42.0938L18.9563 41.8219L19.2656 41.55V33.6562V25.7625L18.9563 25.4906L18.6563 25.2187L12.8156 25.2281C9.60938 25.2281 6.9 25.2656 6.79688 25.3031ZM17.4375 33.6562V40.2187H12.75H8.0625V33.6562V27.0937H12.75H17.4375V33.6562Z" fill="#6DECB9"/>
<path d="M23.6625 25.3125C23.55 25.35 23.3719 25.5094 23.2594 25.65L23.0625 25.9031L23.0813 33.7219L23.1094 41.55L23.4188 41.8219L23.7188 42.0938H32.4375H41.1563L41.4563 41.8219L41.7656 41.55V33.6562V25.7625L41.4563 25.4906L41.1563 25.2187L32.5031 25.2281C27.75 25.2281 23.7656 25.2656 23.6625 25.3125ZM38.1563 27.3187C37.5375 27.9187 32.5031 32.3437 32.4375 32.3437C32.3719 32.3437 27.3375 27.9187 26.7188 27.3187L26.4844 27.0937H32.4375H38.3906L38.1563 27.3187ZM28.1063 31.0687C29.6625 32.4469 30.9375 33.6187 30.9375 33.6562C30.9375 33.7219 25.4813 38.6156 25.1063 38.8875C24.9469 39.0094 24.9375 38.8219 24.9375 33.6562C24.9375 28.4906 24.9469 28.3031 25.1063 28.425C25.2 28.4906 26.55 29.6812 28.1063 31.0687ZM39.9188 36.3375L39.8906 39.0187L36.9188 36.375C35.2781 34.9219 33.9375 33.6937 33.9375 33.6562C33.9375 33.6187 35.2781 32.3906 36.9188 30.9375L39.8906 28.2937L39.9188 30.975C39.9281 32.4469 39.9281 34.8656 39.9188 36.3375ZM35.4375 37.5656L38.3625 40.1719L35.4 40.2C33.7688 40.2094 31.1063 40.2094 29.475 40.2L26.5125 40.1719L29.4375 37.5656C31.05 36.1406 32.4 34.9687 32.4375 34.9687C32.475 34.9687 33.825 36.1406 35.4375 37.5656Z" fill="#6DECB9"/>
</g>
<defs>
<clipPath id="clip0_32_57">
<rect width="48" height="48" fill="white"/>
</clipPath>
</defs>
</svg>
